<svg width="22" height="22" viewBox="0 0 22 22" fill="none" xmlns="http://www.w3.org/2000/svg">
<path d="M11.0013 9.16669C9.99297 9.16669 9.16797 9.99169 9.16797 11C9.16797 12.0084 9.99297 12.8334 11.0013 12.8334C12.0096 12.8334 12.8346 12.0084 12.8346 11C12.8346 9.99169 12.0096 9.16669 11.0013 9.16669ZM11.0013 3.66669C9.99297 3.66669 9.16797 4.49169 9.16797 5.50002C9.16797 6.50835 9.99297 7.33335 11.0013 7.33335C12.0096 7.33335 12.8346 6.50835 12.8346 5.50002C12.8346 4.49169 12.0096 3.66669 11.0013 3.66669ZM11.0013 14.6667C9.99297 14.6667 9.16797 15.4917 9.16797 16.5C9.16797 17.5084 9.99297 18.3334 11.0013 18.3334C12.0096 18.3334 12.8346 17.5084 12.8346 16.5C12.8346 15.4917 12.0096 14.6667 11.0013 14.6667Z" fill="#2F2F31"/>
</svg>
