<svg width="18" height="18" viewBox="0 0 18 18" fill="none" xmlns="http://www.w3.org/2000/svg">
<path fill-rule="evenodd" clip-rule="evenodd" d="M2.04416 0.194278C2.11481 -0.0647595 2.48223 -0.0647595 2.55288 0.194278C2.79851 1.09493 3.50212 1.79853 4.40277 2.04416C4.6618 2.11481 4.6618 2.48223 4.40277 2.55288C3.50212 2.79851 2.79851 3.50212 2.55288 4.40277C2.48223 4.6618 2.11481 4.6618 2.04416 4.40277C1.79853 3.50212 1.09493 2.79851 0.194278 2.55288C-0.0647595 2.48223 -0.0647595 2.11481 0.194278 2.04416C1.09493 1.79853 1.79853 1.09493 2.04416 0.194278ZM8.03378 2.20207C8.28105 1.29544 9.56703 1.29544 9.8143 2.20207C10.674 5.35435 13.1366 7.81696 16.2889 8.67667C17.1955 8.92393 17.1955 10.2099 16.2889 10.4572C13.1366 11.3169 10.674 13.7795 9.8143 16.9318C9.56703 17.8384 8.28105 17.8384 8.03378 16.9318C7.17407 13.7795 4.71146 11.3169 1.55919 10.4572C0.652554 10.2099 0.652555 8.92393 1.55919 8.67667C4.71146 7.81696 7.17407 5.35435 8.03378 2.20207ZM15.4081 14.4978C15.3519 14.2917 15.0596 14.2917 15.0034 14.4978C14.808 15.2142 14.2483 15.7739 13.5319 15.9693C13.3259 16.0255 13.3259 16.3178 13.5319 16.374C14.2483 16.5693 14.808 17.129 15.0034 17.8455C15.0596 18.0515 15.3519 18.0515 15.4081 17.8455C15.6035 17.129 16.1631 16.5693 16.8796 16.374C17.0856 16.3178 17.0856 16.0255 16.8796 15.9693C16.1631 15.7739 15.6035 15.2142 15.4081 14.4978Z" fill="url(#paint0_radial_4147_592)"/>
<defs>
<radialGradient id="paint0_radial_4147_592" cx="0" cy="0" r="1" gradientUnits="userSpaceOnUse" gradientTransform="translate(20.5203 -0.0963696) rotate(130.18) scale(28.4565 28.4566)">
<stop offset="0.21" stop-color="#0022EC"/>
<stop offset="0.375" stop-color="#7B00FF"/>
<stop offset="0.61" stop-color="#FF37D7"/>
<stop offset="0.87" stop-color="#FFE100"/>
</radialGradient>
</defs>
</svg>
