<svg width="19" height="19" viewBox="0 0 19 19" fill="none" xmlns="http://www.w3.org/2000/svg">
<mask id="path-1-inside-1_4945_1118" fill="white">
<path d="M10.7212 0.00976562C14.8646 0.219654 18.1597 3.64626 18.1597 7.8418H10.3179V0L10.7212 0.00976562Z"/>
</mask>
<path d="M10.7212 0.00976562L10.8161 -1.86381L10.7914 -1.86506L10.7666 -1.86566L10.7212 0.00976562ZM18.1597 7.8418V9.71777H20.0356V7.8418H18.1597ZM10.3179 7.8418H8.4419V9.71777H10.3179V7.8418ZM10.3179 0L10.3633 -1.87542L8.4419 -1.92195V0H10.3179ZM10.7212 0.00976562L10.6263 1.88334C13.7767 2.04293 16.2837 4.6504 16.2837 7.8418H18.1597H20.0356C20.0356 2.64213 15.9524 -1.60362 10.8161 -1.86381L10.7212 0.00976562ZM18.1597 7.8418V5.96582H10.3179V7.8418V9.71777H18.1597V7.8418ZM10.3179 7.8418H12.1938V0H10.3179H8.4419V7.8418H10.3179ZM10.3179 0L10.2725 1.87542L10.6758 1.88519L10.7212 0.00976562L10.7666 -1.86566L10.3633 -1.87542L10.3179 0Z" fill="black" mask="url(#path-1-inside-1_4945_1118)"/>
<mask id="path-3-inside-2_4945_1118" fill="white">
<path d="M7.56738 3.31201C7.88521 3.31201 8.19833 3.33354 8.50586 3.37158V9.94189H15.0752C15.1132 10.2492 15.1347 10.5619 15.1348 10.8794C15.1348 15.0587 11.7467 18.4478 7.56738 18.4478C3.38805 18.4477 0 15.0587 0 10.8794C0.000262115 6.70028 3.38821 3.31203 7.56738 3.31201Z"/>
</mask>
<path d="M7.56738 3.31201V1.43604H7.56737L7.56738 3.31201ZM8.50586 3.37158H10.3818V1.71339L8.73618 1.5098L8.50586 3.37158ZM8.50586 9.94189H6.62989V11.8179H8.50586V9.94189ZM15.0752 9.94189L16.937 9.71167L16.7335 8.06592H15.0752V9.94189ZM15.1348 10.8794H17.0107V10.8793L15.1348 10.8794ZM7.56738 18.4478L7.56737 20.3237H7.56738V18.4478ZM0 10.8794L-1.87597 10.8793V10.8794H0ZM7.56738 3.31201V5.18799C7.8005 5.18799 8.03635 5.20377 8.27554 5.23336L8.50586 3.37158L8.73618 1.5098C8.3603 1.4633 7.96992 1.43604 7.56738 1.43604V3.31201ZM8.50586 3.37158H6.62989V9.94189H8.50586H10.3818V3.37158H8.50586ZM8.50586 9.94189V11.8179H15.0752V9.94189V8.06592H8.50586V9.94189ZM15.0752 9.94189L13.2134 10.1721C13.243 10.4113 13.2588 10.6468 13.2588 10.8795L15.1348 10.8794L17.0107 10.8793C17.0107 10.4769 16.9834 10.087 16.937 9.71167L15.0752 9.94189ZM15.1348 10.8794H13.2588C13.2588 14.023 10.7104 16.5718 7.56738 16.5718V18.4478V20.3237C12.7831 20.3237 17.0107 16.0945 17.0107 10.8794H15.1348ZM7.56738 18.4478L7.56739 16.5718C4.42443 16.5718 1.87597 14.023 1.87597 10.8794H0H-1.87597C-1.87597 16.0945 2.35167 20.3237 7.56737 20.3237L7.56738 18.4478ZM0 10.8794L1.87597 10.8795C1.87617 7.73627 4.42439 5.188 7.56739 5.18799L7.56738 3.31201L7.56737 1.43604C2.35203 1.43607 -1.87565 5.66429 -1.87597 10.8793L0 10.8794Z" fill="black" mask="url(#path-3-inside-2_4945_1118)"/>
</svg>
