<?xml version="1.0" encoding="UTF-8" standalone="no"?>
<!-- Created with Inkscape (http://www.inkscape.org/) -->

<svg
   version="1.1"
   id="svg2"
   width="32"
   height="32"
   viewBox="0 0 32 32"
   xmlns="http://www.w3.org/2000/svg"
   xmlns:svg="http://www.w3.org/2000/svg">
  <defs
     id="defs6" />
  <g
     id="g8"
     transform="scale(1.3333333)">
    <g
       id="g10">
      <path
         d="M 10.562,15.906 16.957,9.512 16.25,8.805 10.562,14.492 7.711,11.641 7.004,12.352 Z M 12.004,21 C 10.758,21 9.59,20.766 8.492,20.293 7.398,19.82 6.445,19.18 5.633,18.367 4.824,17.559 4.184,16.605 3.711,15.512 3.238,14.418 3,13.246 3,12.004 3,10.758 3.234,9.59 3.707,8.492 4.18,7.398 4.82,6.445 5.633,5.633 6.441,4.824 7.395,4.184 8.488,3.711 9.582,3.238 10.754,3 11.996,3 c 1.246,0 2.414,0.234 3.512,0.707 1.094,0.473 2.047,1.113 2.859,1.926 0.809,0.808 1.449,1.762 1.922,2.855 0.473,1.094 0.711,2.266 0.711,3.508 0,1.246 -0.234,2.414 -0.707,3.512 -0.473,1.094 -1.113,2.047 -1.926,2.859 -0.808,0.809 -1.762,1.449 -2.855,1.922 C 14.418,20.762 13.246,21 12.004,21 Z M 12,20 c 2.234,0 4.125,-0.773 5.676,-2.324 C 19.227,16.125 20,14.234 20,12 20,9.766 19.227,7.875 17.676,6.324 16.125,4.773 14.234,4 12,4 9.766,4 7.875,4.773 6.324,6.324 4.773,7.875 4,9.766 4,12 4,14.234 4.773,16.125 6.324,17.676 7.875,19.227 9.766,20 12,20 Z"
         style="fill:#000000;fill-opacity:1;fill-rule:nonzero;stroke:none"
         id="path12" />
    </g>
  </g>
</svg>
