<svg width="19" height="16" viewBox="0 0 19 16" fill="none" xmlns="http://www.w3.org/2000/svg">
<path d="M3.30176 1L10.3018 8L17.3018 15" stroke="black" stroke-width="1.5"/>
<path d="M8.51172 6.85693C8.01295 7.22063 7.6875 7.80763 7.6875 8.47217C7.6875 9.57674 8.58293 10.4722 9.6875 10.4722C10.3521 10.4722 10.9381 10.1458 11.3018 9.64697L12.3721 10.7173C11.73 11.4842 10.7659 11.9722 9.6875 11.9722C7.7545 11.9722 6.1875 10.4052 6.1875 8.47217C6.1875 7.39382 6.67458 6.42865 7.44141 5.78662L8.51172 6.85693Z" fill="black"/>
<path d="M7.49609 4.18066C6.40067 4.51187 5.45194 5.08998 4.65723 5.7666C3.53722 6.72023 2.75172 7.84504 2.3291 8.66211C3.07972 10.396 5.38027 13.3828 9.50879 13.3828C11.7746 13.3828 13.4879 12.4813 14.6982 11.3828L15.7607 12.4453C14.3171 13.7806 12.2567 14.8828 9.50879 14.8828C4.27492 14.8828 1.53109 10.889 0.803711 8.88867L0.699219 8.60156L0.826172 8.32227C1.28465 7.31371 2.2492 5.84692 3.68555 4.62402C4.42998 3.99028 5.311 3.41512 6.32129 3.00586L7.49609 4.18066ZM9.50879 2.38281C11.93 2.38281 13.8876 3.3944 15.332 4.62402C16.7684 5.84692 17.7329 7.31371 18.1914 8.32227L18.3184 8.60156L18.2139 8.88867C17.97 9.55938 17.4984 10.4534 16.7832 11.3467L15.7139 10.2773C16.157 9.70211 16.4821 9.13659 16.6875 8.66211C16.2648 7.84507 15.4802 6.72008 14.3604 5.7666C13.1131 4.70471 11.4873 3.88281 9.50879 3.88281C9.4469 3.88281 9.38542 3.8861 9.32422 3.8877L7.96289 2.52637C8.45502 2.43501 8.97024 2.38281 9.50879 2.38281Z" fill="black"/>
</svg>
