<svg xmlns="http://www.w3.org/2000/svg" xmlns:xlink="http://www.w3.org/1999/xlink" xmlns:inkscape="http://www.inkscape.org/namespaces/inkscape" version="1.1" width="32" height="32" viewBox="0 0 32 32">
<path transform="matrix(1,0,0,-1,4,26.205079)" d="M12.000001-.000027 10.989734 .912806C8.813666 2.900829 7.013667 4.602528 5.589733 6.017906 4.1658 7.433306 3.041867 8.681605 2.217933 9.762806 1.394 10.844006 .818367 11.822206 .491033 12.697406 .163678 13.572628 0 14.452972 0 15.33844 0 17.034173 .576066 18.458107 1.7282 19.610239 2.880333 20.762373 4.304267 21.33844 6 21.33844 7.172645 21.33844 8.272645 21.03844 9.3 20.43844 10.327356 19.83844 11.227356 18.965794 12.000001 17.820506 12.772645 18.965794 13.672646 19.83844 14.700001 20.43844 15.727356 21.03844 16.827357 21.33844 18 21.33844 19.695734 21.33844 21.119668 20.762373 22.271801 19.610239 23.423935 18.458107 24.000002 17.034173 24.000002 15.33844 24.000002 14.452972 23.836323 13.572628 23.508967 12.697406 23.181635 11.822206 22.606 10.844006 21.782067 9.762806 20.958134 8.681605 19.838479 7.433306 18.423102 6.017906 17.0077 4.602528 15.203424 2.900829 13.010268 .912806L12.000001-.000027ZM12.000001 1.805105C14.133334 3.733305 15.888889 5.385016 17.266669 6.760239 18.644446 8.135439 19.733334 9.328594 20.533335 10.339705 21.333334 11.350817 21.88889 12.246551 22.2 13.026906 22.511113 13.80724 22.666668 14.577751 22.666668 15.33844 22.666668 16.671772 22.222224 17.782885 21.333334 18.671774 20.444445 19.560662 19.333334 20.005106 18 20.005106 16.938467 20.005106 15.958979 19.702118 15.061534 19.09614 14.164112 18.490162 13.360701 17.577763 12.6513 16.35894H11.348701C10.622211 17.59485 9.814523 18.511517 8.925634 19.10894 8.036745 19.706385 7.061534 20.005106 6 20.005106 4.683756 20.005106 3.576922 19.560662 2.6795 18.671774 1.782055 17.782885 1.333333 16.671772 1.333333 15.33844 1.333333 14.577751 1.488889 13.80724 1.8 13.026906 2.111111 12.246551 2.666667 11.350817 3.466667 10.339705 4.266667 9.328594 5.355556 8.139706 6.733334 6.773039 8.111112 5.406372 9.866667 3.750395 12.000001 1.805105Z"/>
</svg>
