<svg xmlns="http://www.w3.org/2000/svg" xmlns:xlink="http://www.w3.org/1999/xlink" xmlns:inkscape="http://www.inkscape.org/namespaces/inkscape" version="1.1" width="32" height="32" viewBox="0 0 32 32">
<path transform="matrix(1,0,0,-1,2.666748,27.977662)" d="M13.333336 0 11.777668 1.400002C9.462557 3.51289 7.548667 5.335556 6.036001 6.868 4.523111 8.400444 3.318556 9.772224 2.422334 10.983335 1.525889 12.194447 .898111 13.296225 .539 14.28867 .179667 15.281336 0 16.28878 0 17.311003 0 19.343003 .681445 21.03989 2.044334 22.401669 3.407445 23.763447 5.096334 24.444336 7.111001 24.444336 8.340778 24.444336 9.489002 24.162892 10.555669 23.600003 11.622335 23.03689 12.548224 22.229447 13.333336 21.17767 14.207335 22.273892 15.166558 23.092446 16.211003 23.633336 17.255448 24.174002 18.370337 24.444336 19.55567 24.444336 21.570336 24.444336 23.259226 23.763447 24.622338 22.401669 25.985226 21.03989 26.666672 19.343003 26.666672 17.311003 26.666672 16.28878 26.487006 15.281336 26.127673 14.28867 25.76856 13.296225 25.140784 12.194447 24.244338 10.983335 23.348116 9.772224 22.143559 8.400444 20.630669 6.868 19.118002 5.335556 17.204113 3.51289 14.889002 1.400002L13.333336 0ZM13.333336 2.955336C15.544225 4.970224 17.36367 6.698002 18.79167 8.138668 20.219449 9.579556 21.351893 10.838891 22.189003 11.916669 23.025893 12.994447 23.611004 13.95467 23.944338 14.797337 24.277672 15.640003 24.444338 16.47678 24.444338 17.30767 24.444338 18.732115 23.985116 19.907336 23.066672 20.833336 22.148226 21.759114 20.979559 22.222004 19.56067 22.222004 18.449114 22.222004 17.420336 21.890559 16.474335 21.227669 15.528558 20.564782 14.800114 19.659226 14.289002 18.511002H12.355669C11.859224 19.644337 11.138113 20.546225 10.192334 21.21667 9.246334 21.88689 8.217557 22.222004 7.106001 22.222004 5.687112 22.222004 4.518445 21.759114 3.600001 20.833336 2.681556 19.907336 2.222334 18.73089 2.222334 17.304 2.222334 16.471558 2.389 15.631335 2.722334 14.783335 3.055667 13.935113 3.640779 12.968447 4.477667 11.883336 5.314779 10.798002 6.45189 9.538668 7.889002 8.105335 9.325891 6.672001 11.140669 4.955336 13.333336 2.955336Z"/>
</svg>
