<svg width="17" height="15" viewBox="0 0 17 15" fill="none" xmlns="http://www.w3.org/2000/svg">
<path d="M2.63502 6.85113L8.58922 12.8053L15.4595 6.39312L15.9175 5.01907L15.4595 3.18701L14.0854 1.81297L12.2533 1.35495C11.7953 1.50762 10.7877 1.90457 10.4213 2.27098C10.0549 2.63739 9.04724 3.03434 8.58922 3.18701L7.21518 2.27098L5.38312 1.35495L2.63502 2.27098L1.71899 4.56106L2.63502 6.85113Z" fill="black"/>
<mask id="path-2-inside-1_5915_345" fill="white">
<path d="M9.12614 1.60997C10.8557 -0.119473 13.6603 -0.119449 15.3898 1.60997C17.1193 3.33951 17.1193 6.14406 15.3898 7.87364L8.72868 14.5348L2.46599 8.2711L2.06755 7.87364C0.338241 6.14405 0.338081 3.33946 2.06755 1.60997C3.79703 -0.119529 6.60164 -0.119377 8.33122 1.60997L8.72868 2.00841L9.12614 1.60997Z"/>
</mask>
<path d="M9.12614 1.60997L8.01207 0.495844L8.01068 0.49724L9.12614 1.60997ZM15.3898 1.60997L16.5039 0.495876L16.5039 0.495832L15.3898 1.60997ZM15.3898 7.87364L16.5039 8.98774L16.504 8.9877L15.3898 7.87364ZM8.72868 14.5348L7.6145 15.6488L8.72859 16.7631L9.84278 15.6489L8.72868 14.5348ZM2.46599 8.2711L3.58017 7.15709L3.57872 7.15564L2.46599 8.2711ZM2.06755 7.87364L0.953358 8.98765L0.954818 8.98911L2.06755 7.87364ZM2.06755 1.60997L0.953446 0.495876L0.953442 0.49588L2.06755 1.60997ZM8.33122 1.60997L9.44668 0.497239L9.44524 0.495797L8.33122 1.60997ZM8.72868 2.00841L7.61322 3.12114L8.72868 4.23934L9.84414 3.12114L8.72868 2.00841ZM9.12614 1.60997L10.2402 2.7241C11.3544 1.60993 13.1615 1.60992 14.2758 2.72411L15.3898 1.60997L16.5039 0.495832C14.1591 -1.84882 10.3569 -1.84887 8.01207 0.495845L9.12614 1.60997ZM15.3898 1.60997L14.2757 2.72406C15.3899 3.83826 15.3899 5.64525 14.2757 6.75959L15.3898 7.87364L16.504 8.9877C18.8486 6.64286 18.8488 2.84075 16.5039 0.495876L15.3898 1.60997ZM15.3898 7.87364L14.2757 6.75954L7.61458 13.4207L8.72868 14.5348L9.84278 15.6489L16.5039 8.98774L15.3898 7.87364ZM8.72868 14.5348L9.84287 13.4208L3.58017 7.15709L2.46599 8.2711L1.3518 9.38511L7.6145 15.6488L8.72868 14.5348ZM2.46599 8.2711L3.57872 7.15564L3.18028 6.75818L2.06755 7.87364L0.954818 8.98911L1.35326 9.38657L2.46599 8.2711ZM2.06755 7.87364L3.18174 6.75964C2.06752 5.64524 2.06756 3.83817 3.18165 2.72406L2.06755 1.60997L0.953442 0.49588C-1.3914 2.84075 -1.39104 6.64286 0.953359 8.98765L2.06755 7.87364ZM2.06755 1.60997L3.18165 2.72406C4.29576 1.60995 6.10282 1.60992 7.2172 2.72414L8.33122 1.60997L9.44524 0.495797C7.10046 -1.84867 3.29831 -1.84901 0.953446 0.495876L2.06755 1.60997ZM8.33122 1.60997L7.21576 2.7227L7.61322 3.12114L8.72868 2.00841L9.84414 0.895677L9.44668 0.49724L8.33122 1.60997ZM8.72868 2.00841L9.84414 3.12114L10.2416 2.7227L9.12614 1.60997L8.01068 0.49724L7.61322 0.895677L8.72868 2.00841Z" fill="black" mask="url(#path-2-inside-1_5915_345)"/>
</svg>
