<svg width="16" height="15" viewBox="0 0 16 15" fill="none" xmlns="http://www.w3.org/2000/svg">
<mask id="path-1-inside-1_5915_351" fill="white">
<path d="M8.41667 1.60997C10.1462 -0.119473 12.9508 -0.119449 14.6803 1.60997C16.4099 3.33951 16.4098 6.14406 14.6803 7.87364L8.01921 14.5348L1.75651 8.2711L1.35808 7.87364C-0.371232 6.14405 -0.371392 3.33946 1.35808 1.60997C3.08756 -0.119529 5.89217 -0.119377 7.62175 1.60997L8.01921 2.00841L8.41667 1.60997Z"/>
</mask>
<path d="M8.41667 1.60997L7.3026 0.495844L7.30121 0.49724L8.41667 1.60997ZM14.6803 1.60997L15.7944 0.495876L15.7944 0.495832L14.6803 1.60997ZM14.6803 7.87364L15.7944 8.98774L15.7945 8.9877L14.6803 7.87364ZM8.01921 14.5348L6.90502 15.6488L8.01912 16.7631L9.13331 15.6489L8.01921 14.5348ZM1.75651 8.2711L2.8707 7.15709L2.86924 7.15564L1.75651 8.2711ZM1.35808 7.87364L0.243885 8.98765L0.245345 8.98911L1.35808 7.87364ZM1.35808 1.60997L0.243973 0.495876L0.243969 0.49588L1.35808 1.60997ZM7.62175 1.60997L8.73721 0.497239L8.73577 0.495797L7.62175 1.60997ZM8.01921 2.00841L6.90374 3.12114L8.01921 4.23934L9.13467 3.12114L8.01921 2.00841ZM8.41667 1.60997L9.53074 2.7241C10.645 1.60993 12.452 1.60992 13.5663 2.72411L14.6803 1.60997L15.7944 0.495832C13.4496 -1.84882 9.64743 -1.84887 7.3026 0.495845L8.41667 1.60997ZM14.6803 1.60997L13.5662 2.72406C14.6804 3.83826 14.6804 5.64525 13.5662 6.75959L14.6803 7.87364L15.7945 8.9877C18.1391 6.64286 18.1393 2.84075 15.7944 0.495876L14.6803 1.60997ZM14.6803 7.87364L13.5662 6.75954L6.90511 13.4207L8.01921 14.5348L9.13331 15.6489L15.7944 8.98774L14.6803 7.87364ZM8.01921 14.5348L9.13339 13.4208L2.8707 7.15709L1.75651 8.2711L0.642328 9.38511L6.90502 15.6488L8.01921 14.5348ZM1.75651 8.2711L2.86924 7.15564L2.47081 6.75818L1.35808 7.87364L0.245345 8.98911L0.643783 9.38657L1.75651 8.2711ZM1.35808 7.87364L2.47226 6.75964C1.35805 5.64524 1.35809 3.83817 2.47218 2.72406L1.35808 1.60997L0.243969 0.49588C-2.10087 2.84075 -2.10052 6.64286 0.243886 8.98765L1.35808 7.87364ZM1.35808 1.60997L2.47218 2.72406C3.58628 1.60995 5.39335 1.60992 6.50772 2.72414L7.62175 1.60997L8.73577 0.495797C6.39099 -1.84867 2.58884 -1.84901 0.243973 0.495876L1.35808 1.60997ZM7.62175 1.60997L6.50628 2.7227L6.90374 3.12114L8.01921 2.00841L9.13467 0.895677L8.73721 0.49724L7.62175 1.60997ZM8.01921 2.00841L9.13467 3.12114L9.53213 2.7227L8.41667 1.60997L7.30121 0.49724L6.90374 0.895677L8.01921 2.00841Z" fill="black" mask="url(#path-1-inside-1_5915_351)"/>
</svg>
