<svg xmlns="http://www.w3.org/2000/svg" xmlns:xlink="http://www.w3.org/1999/xlink" xmlns:inkscape="http://www.inkscape.org/namespaces/inkscape" version="1.1" width="32" height="32" viewBox="0 0 32 32">
<path transform="matrix(1,0,0,-1,4,28)" d="M11.333334 6H12.666667V11.333333H18V12.666666H12.666667V18H11.333334V12.666666H6V11.333333H11.333334V6ZM12.004467-.000002C10.345067-.000002 8.784956 .314877 7.324134 .944632 5.863311 1.574409 4.592589 2.429098 3.511967 3.508699 2.431367 4.588299 1.575889 5.857822 .945533 7.317266 .315178 8.776732 0 10.336155 0 11.995533 0 13.654933 .314878 15.215044 .944634 16.675866 1.574411 18.136689 2.4291 19.40741 3.5087 20.488034 4.5883 21.568633 5.857823 22.42411 7.317267 23.054467 8.776734 23.684823 10.336156 24 11.995534 24 13.654934 24 15.215045 23.685124 16.675868 23.055367 18.13669 22.425589 19.407412 21.5709 20.488034 20.4913 21.568634 19.411702 22.42411 18.142178 23.054467 16.682732 23.684823 15.223266 24.000002 13.663844 24.000002 12.004466 24.000002 10.345066 23.685124 8.784955 23.055369 7.324133 22.42559 5.86331 21.570902 4.592588 20.4913 3.511967 19.411702 2.431366 18.142178 1.575886 16.682734 .945532 15.223268 .315176 13.663845-.000002 12.004467-.000002ZM12.000001 1.333332C14.977778 1.333332 17.5 2.366665 19.566668 4.433332 21.633336 6.5 22.666668 9.022222 22.666668 11.999999 22.666668 14.977777 21.633336 17.5 19.566668 19.566666 17.5 21.633334 14.977778 22.666666 12.000001 22.666666 9.022223 22.666666 6.5 21.633334 4.433333 19.566666 2.366667 17.5 1.333333 14.977777 1.333333 11.999999 1.333333 9.022222 2.366667 6.5 4.433333 4.433332 6.5 2.366665 9.022223 1.333332 12.000001 1.333332Z"/>
</svg>
