<svg width="26" height="27" viewBox="0 0 26 27" fill="none" xmlns="http://www.w3.org/2000/svg">
<path d="M13 19.1918L12.5114 18.7612C11.2208 17.6273 10.155 16.6545 9.31411 15.8428C8.47307 15.0313 7.80697 14.3162 7.31581 13.6976C6.82451 13.079 6.48235 12.5211 6.28933 12.0241C6.09644 11.527 6 11.0312 6 10.5367C6 9.60117 6.33023 8.81547 6.99069 8.17966C7.65116 7.54386 8.46763 7.22595 9.44011 7.22595C10.1408 7.22595 10.7939 7.40382 11.3995 7.75955C12.0052 8.11529 12.5386 8.63449 13 9.31716C13.4866 8.62227 14.0274 8.10002 14.6224 7.75039C15.2174 7.40076 15.8633 7.22595 16.5599 7.22595C17.5324 7.22595 18.3488 7.54386 19.0093 8.17966C19.6698 8.81547 20 9.60117 20 10.5367C20 11.0312 19.9036 11.527 19.7107 12.0241C19.5176 12.5211 19.1759 13.0783 18.6854 13.6955C18.1948 14.3128 17.5296 15.0278 16.6896 15.8408C15.8496 16.6538 14.7826 17.6273 13.4886 18.7612L13 19.1918Z" fill="#FF0000"/>
</svg>
