<svg xmlns="http://www.w3.org/2000/svg" xmlns:xlink="http://www.w3.org/1999/xlink" xmlns:inkscape="http://www.inkscape.org/namespaces/inkscape" version="1.1" width="59" height="67" viewBox="0 0 59 67">
<defs>
<clipPath id="clip_0">
<path d="M20 6H58.441V67H20Z"/>
</clipPath>
</defs>
<g>
<path d="M14.645 24.18H19.297C24.586 24.18 28.102 27.637 28.102 33.895 28.102 40.148 24.879 43.977 19.59 43.977H14.645V43.395C15.73 43.395 16.098 43.238 16.098 41.52V26.637C16.098 24.895 15.73 24.762 14.645 24.762ZM25.59 34.582C25.59 29.223 23.848 25.344 19.008 25.344H18.531V42.816H19.617C23.477 42.816 25.59 40.281 25.59 34.582ZM25.59 34.582" fill="#0022ec"/>
<path d="M42.449 24.18H46.684V24.762C45.969 24.762 45.598 25.156 45.121 26.926L40.68 44.188H39.914L36.977 32.547 33.805 44.188H33.039L28.598 26.953C28.121 25.184 27.805 24.762 27.09 24.762V24.18H32.035V24.762C30.898 24.762 30.5 24.945 31.004 26.953L34.016 38.805 36.371 30.199 35.551 26.953C35.102 25.184 34.785 24.762 34.043 24.762V24.18H38.934V24.762C37.824 24.762 37.43 24.945 37.93 26.953L40.812 38.75 43.668 27.641C44.223 25.371 43.852 24.789 42.453 24.762V24.184ZM42.449 24.18" fill="#0022ec"/>
<path d="M34.645 5.637 38.055 1.711 38.031 .559C24.191-2.473 8.922 7.098 2.688 23.375-2.684 37.398 .273 52.18 9.082 60.453L9.828 59.812C9.828 59.812 3.652 53.09 3.664 40.852 3.555 35.773 4.469 30.32 6.531 24.93 11.965 10.746 24.156 1.352 34.488 1.789 34.465 1.867 33.547 5.137 33.547 5.137ZM34.645 5.637" fill="#0022ec"/>
<g clip-path="url(#clip_0)">
<path d="M23.797 61.363 20.387 65.289 20.41 66.441C34.25 69.473 49.52 59.902 55.754 43.625 61.125 29.602 58.168 14.82 49.359 6.547L48.613 7.188C48.613 7.188 54.789 13.91 54.777 26.148 54.887 31.227 53.973 36.68 51.91 42.07 46.477 56.254 34.285 65.648 23.953 65.211 23.977 65.133 24.895 61.863 24.895 61.863ZM23.797 61.363" fill="#0022ec"/>
</g>
</g>
</svg>
