<svg xmlns="http://www.w3.org/2000/svg" xmlns:xlink="http://www.w3.org/1999/xlink" xmlns:inkscape="http://www.inkscape.org/namespaces/inkscape" version="1.1" width="32" height="32" viewBox="0 0 32 32">
<path transform="matrix(1,0,0,-1,2.666992,29.333252)" d="M12.289002 6.666622H14.511002V12.133291H20.000004V14.355625H14.511002V19.999958H12.289002V14.355625H6.666667V12.133291H12.289002V6.666622ZM13.339334-.000044C11.498668-.000044 9.769002 .349957 8.150335 1.049957 6.531668 1.749956 5.118556 2.703623 3.911 3.910957 2.703667 5.118513 1.75 6.532179 1.05 8.151957 .35 9.771736 0 11.502512 0 13.34429 0 15.186068 .35 16.916958 1.05 18.536957 1.75 20.156735 2.703667 21.566626 3.911 22.766627 5.118556 23.966626 6.532223 24.916626 8.152001 25.616627 9.771779 26.316626 11.502557 26.666626 13.344335 26.666626 15.186112 26.666626 16.917002 26.316626 18.537 25.616627 20.15678 24.916626 21.56667 23.966626 22.766669 22.766627 23.96667 21.566626 24.91667 20.155514 25.616669 18.53329 26.31667 16.911068 26.66667 15.179736 26.66667 13.339292 26.66667 11.498624 26.31667 9.768957 25.616669 8.150291 24.91667 6.531624 23.96667 5.119957 22.766669 3.915291 21.56667 2.710623 20.15556 1.756844 18.533337 1.053955 16.911114 .351288 15.179779-.000044 13.339334-.000044ZM13.344335 2.222288C16.433224 2.222288 19.055449 3.303734 21.211005 5.466623 23.36656 7.629511 24.444338 10.255402 24.444338 13.34429 24.444338 16.433178 23.368004 19.055403 21.215338 21.210959 19.062449 23.366515 16.435112 24.444294 13.333335 24.444294 10.251779 24.444294 7.629556 23.36796 5.466667 21.215292 3.303778 19.062403 2.222334 16.43507 2.222334 13.333291 2.222334 10.251736 3.303778 7.629511 5.466667 5.466623 7.629556 3.303734 10.255445 2.222288 13.344335 2.222288Z"/>
</svg>
