<svg width="24" height="24" viewBox="0 0 24 24" fill="none" xmlns="http://www.w3.org/2000/svg">
<path d="M4.4615 19C4.05183 19 3.70583 18.8588 3.4235 18.5765C3.14117 18.2942 3 17.9482 3 17.5385V6.4615C3 6.05183 3.14117 5.70583 3.4235 5.4235C3.70583 5.14117 4.05183 5 4.4615 5H19.5385C19.9482 5 20.2942 5.14117 20.5765 5.4235C20.8588 5.70583 21 6.05183 21 6.4615V17.5385C21 17.9482 20.8588 18.2942 20.5765 18.5765C20.2942 18.8588 19.9482 19 19.5385 19H4.4615ZM12 11.941L3.84625 6.532V17.5385C3.84625 17.718 3.90392 17.8654 4.01925 17.9808C4.13458 18.0961 4.282 18.1538 4.4615 18.1538H19.5385C19.718 18.1538 19.8654 18.0961 19.9807 17.9808C20.0961 17.8654 20.1538 17.718 20.1538 17.5385V6.532L12 11.941ZM12 10.9795L19.818 5.84625H4.19875L12 10.9795ZM3.84625 6.532V5.84625V17.5385C3.84625 17.718 3.90392 17.8654 4.01925 17.9808C4.13458 18.0961 4.282 18.1538 4.4615 18.1538H3.84625V6.532Z" fill="black"/>
</svg>
