<svg width="24" height="24" viewBox="0 0 24 24" fill="none" xmlns="http://www.w3.org/2000/svg">
<path d="M5 18.7693V17.923H6.6155V9.818C6.6155 8.5105 7.02617 7.35367 7.8475 6.3475C8.66883 5.3415 9.71967 4.72267 11 4.491V4C11 3.72217 11.097 3.48608 11.291 3.29175C11.485 3.09725 11.7206 3 11.9978 3C12.2749 3 12.5113 3.09725 12.7067 3.29175C12.9022 3.48608 13 3.72217 13 4V4.4975C14.2803 4.72483 15.3312 5.3415 16.1525 6.3475C16.9738 7.35367 17.3845 8.5105 17.3845 9.818V17.923H19V18.7693H5ZM11.9965 21.3845C11.5513 21.3845 11.1714 21.2263 10.8568 20.91C10.5419 20.5937 10.3845 20.2134 10.3845 19.7693H13.6155C13.6155 20.2168 13.4569 20.5978 13.1398 20.9125C12.8228 21.2272 12.4417 21.3845 11.9965 21.3845ZM7.4615 17.923H16.5385V9.818C16.5385 8.56233 16.096 7.492 15.211 6.607C14.3258 5.722 13.2555 5.2795 12 5.2795C10.7445 5.2795 9.67417 5.722 8.789 6.607C7.904 7.492 7.4615 8.56233 7.4615 9.818V17.923Z" fill="black"/>
</svg>
