<svg xmlns="http://www.w3.org/2000/svg" xmlns:xlink="http://www.w3.org/1999/xlink" xmlns:inkscape="http://www.inkscape.org/namespaces/inkscape" version="1.1" width="35" height="35" viewBox="0 0 35 35">
<path transform="matrix(1,0,0,-1,0,35)" d="M17.5 35C7.84 35 0 27.16 0 17.5 0 7.84 7.84 0 17.5 0 27.16 0 35 7.84 35 17.5 35 27.16 27.16 35 17.5 35ZM17.5 28C20.8775 28 23.625 25.252499 23.625 21.875 23.625 18.4975 20.8775 15.75 17.5 15.75 14.1225 15.75 11.375 18.4975 11.375 21.875 11.375 25.252499 14.1225 28 17.5 28ZM17.5 3.5C13.9475 3.5 9.7475 4.934999 6.755 8.539999 9.820309 10.94499 13.603836 12.252092 17.5 12.252092 21.396164 12.252092 25.179692 10.94499 28.244999 8.539999 25.252499 4.934999 21.0525 3.5 17.5 3.5Z" fill="#f2f2f3"/>
</svg>
