<svg xmlns="http://www.w3.org/2000/svg" xmlns:xlink="http://www.w3.org/1999/xlink" xmlns:inkscape="http://www.inkscape.org/namespaces/inkscape" version="1.1" width="32" height="32" viewBox="0 0 32 32">
<path transform="matrix(1,0,0,-1,3.166992,29.333252)" d="M4.866667 6.066622C6.177779 7.00729 7.52589 7.735067 8.911001 8.249956 10.296334 8.764845 11.770447 9.022291 13.333336 9.022291 14.896225 9.022291 16.374003 8.764845 17.76667 8.249956 19.159337 7.735067 20.511225 7.00729 21.822337 6.066622 22.733448 7.170401 23.398226 8.32229 23.816672 9.522291 24.235116 10.722292 24.444338 11.992623 24.444338 13.33329 24.444338 16.466626 23.375893 19.101847 21.239003 21.238959 19.10189 23.375847 16.46667 24.444293 13.333336 24.444293 10.200002 24.444293 7.564779 23.375847 5.427668 21.238959 3.290778 19.101847 2.222334 16.466626 2.222334 13.33329 2.222334 11.992623 2.435223 10.722292 2.861001 9.522291 3.287001 8.32229 3.955556 7.170401 4.866667 6.066622ZM13.329335 12.222291C12.03578 12.222291 10.946335 12.666179 10.061001 13.553957 9.17589 14.441957 8.733335 15.532735 8.733335 16.82629 8.733335 18.119847 9.177335 19.20918 10.065334 20.094292 10.953113 20.979626 12.043779 21.42229 13.337336 21.42229 14.630891 21.42229 15.720335 20.978293 16.605669 20.090292 17.49078 19.202292 17.933337 18.111514 17.933337 16.817957 17.933337 15.524401 17.489336 14.435068 16.601336 13.549957 15.713557 12.664845 14.622891 12.222291 13.329335 12.222291ZM13.343669-.000046C11.507224-.000046 9.777891 .349955 8.155668 1.049955 6.533446 1.749956 5.118556 2.703623 3.911001 3.910955 2.703667 5.118511 1.75 6.531624 1.05 8.15029 .35 9.768957 0 11.498623 0 13.339291 0 15.179735 .35 16.907402 1.05 18.522292 1.75 20.136958 2.703667 21.548069 3.911001 22.755625 5.118556 23.96296 6.531668 24.916626 8.150335 25.616627 9.769002 26.316626 11.498669 26.666626 13.339335 26.666626 15.17978 26.666626 16.907446 26.316626 18.522336 25.616627 20.137003 24.916626 21.548115 23.96296 22.75567 22.755625 23.963004 21.548069 24.91667 20.136738 25.61667 18.521626 26.316672 16.906292 26.666672 15.18029 26.666672 13.343624 26.666672 11.507179 26.316672 9.777847 25.61667 8.155624 24.91667 6.533401 23.963004 5.118511 22.75567 3.910955 21.548115 2.703623 20.136782 1.749956 18.521672 1.049955 16.906338 .349955 15.180336-.000046 13.343669-.000046ZM13.333336 2.222288C14.540669 2.222288 15.707335 2.398178 16.833336 2.749956 17.959336 3.101734 19.044558 3.6814 20.089003 4.488955 19.044558 5.236956 17.95567 5.809179 16.822337 6.205624 15.689002 6.601847 14.526002 6.799955 13.333336 6.799955 12.140669 6.799955 10.977668 6.601847 9.844335 6.205624 8.711001 5.809179 7.622112 5.236956 6.577667 4.488955 7.622112 3.6814 8.707335 3.101734 9.833335 2.749956 10.959335 2.398178 12.126002 2.222288 13.333336 2.222288ZM13.333336 14.444291C14.029558 14.444291 14.599892 14.666513 15.044336 15.110958 15.488781 15.555403 15.711003 16.125847 15.711003 16.82229 15.711003 17.518513 15.488781 18.088849 15.044336 18.53329 14.599892 18.977736 14.029558 19.199959 13.333336 19.199959 12.637114 19.199959 12.06678 18.977736 11.622335 18.53329 11.177891 18.088849 10.955668 17.518513 10.955668 16.82229 10.955668 16.125847 11.177891 15.555403 11.622335 15.110958 12.06678 14.666513 12.637114 14.444291 13.333336 14.444291Z"/>
</svg>
