<svg xmlns="http://www.w3.org/2000/svg" xmlns:xlink="http://www.w3.org/1999/xlink" xmlns:inkscape="http://www.inkscape.org/namespaces/inkscape" version="1.1" width="32" height="32" viewBox="0 0 32 32">
<path transform="matrix(1,0,0,-1,4,28)" d="M4.261533 4.687166C5.394867 5.502565 6.597434 6.147444 7.869234 6.621799 9.141033 7.096155 10.517956 7.333332 12.000001 7.333332 13.482045 7.333332 14.858967 7.096155 16.130766 6.621799 17.402567 6.147444 18.605135 5.502565 19.738469 4.687166 20.618802 5.598276 21.326924 6.674355 21.862835 7.9154 22.398724 9.156422 22.666668 10.517955 22.666668 11.999999 22.666668 14.955555 21.627779 17.472222 19.550002 19.55 17.472224 21.627778 14.955556 22.666666 12.000001 22.666666 9.044445 22.666666 6.527778 21.627778 4.45 19.55 2.372222 17.472222 1.333333 14.955555 1.333333 11.999999 1.333333 10.517955 1.601278 9.156422 2.137167 7.9154 2.673078 6.674355 3.3812 5.598276 4.261533 4.687166ZM12.000768 11.333333C10.877168 11.333333 9.929478 11.718966 9.157701 12.490232 8.3859 13.261521 8 14.208966 8 15.332566 8 16.456166 8.385633 17.403855 9.1569 18.175633 9.928189 18.947434 10.875633 19.333333 11.999233 19.333333 13.122833 19.333333 14.070522 18.94769 14.8423 18.1764 15.6141 17.405133 16 16.457699 16 15.3341 16 14.2105 15.614356 13.26281 14.843067 12.491033 14.0718 11.719233 13.124368 11.333333 12.000768 11.333333ZM12.000001-.000002C10.326489-.000002 8.759823 .311531 7.3 .934597 5.840178 1.557686 4.570089 2.409399 3.489733 3.489733 2.4094 4.570089 1.557689 5.840178 .9346 7.299999 .311533 8.759821 0 10.326488 0 11.999999 0 13.673511 .311533 15.240177 .9346 16.7 1.557689 18.159823 2.4094 19.42991 3.489733 20.510266 4.570089 21.5906 5.840178 22.44231 7.3 23.0654 8.759823 23.688466 10.326489 24 12.000001 24 13.673512 24 15.240179 23.688466 16.7 23.0654 18.159823 22.44231 19.42991 21.5906 20.510268 20.510266 21.590601 19.42991 22.442313 18.159823 23.065402 16.7 23.688467 15.240177 24.000002 13.673511 24.000002 11.999999 24.000002 10.326488 23.688467 8.759821 23.065402 7.299999 22.442313 5.840178 21.590601 4.570089 20.510268 3.489733 19.42991 2.409399 18.159823 1.557686 16.7 .934597 15.240179 .311531 13.673512-.000002 12.000001-.000002ZM12.000001 1.333332C13.229068 1.333332 14.438468 1.548288 15.628201 1.978199 16.817957 2.40811 17.846169 2.996576 18.712836 3.743599 17.846169 4.43931 16.843602 4.989309 15.705133 5.393599 14.566668 5.797865 13.331623 6 12.000001 6 10.668379 6 9.429068 5.802134 8.282067 5.406399 7.135045 5.010689 6.136744 4.456421 5.287167 3.743599 6.153833 2.996576 7.182045 2.40811 8.3718 1.978199 9.561534 1.548288 10.770934 1.333332 12.000001 1.333332ZM12.000001 12.666666C12.748712 12.666666 13.380334 12.923932 13.894868 13.438466 14.409401 13.952999 14.666667 14.584621 14.666667 15.333333 14.666667 16.082045 14.409401 16.713667 13.894868 17.228199 13.380334 17.742733 12.748712 18 12.000001 18 11.251289 18 10.619667 17.742733 10.105134 17.228199 9.5906 16.713667 9.333334 16.082045 9.333334 15.333333 9.333334 14.584621 9.5906 13.952999 10.105134 13.438466 10.619667 12.923932 11.251289 12.666666 12.000001 12.666666Z"/>
</svg>
