<svg width="25" height="24" viewBox="0 0 25 24" fill="none" xmlns="http://www.w3.org/2000/svg">
<path d="M20.5003 7.6087H17.2916C17.5873 7.14348 17.7612 6.5913 17.7612 6C17.7612 4.34565 16.4156 3 14.7612 3C13.8612 3 13.0503 3.4 12.5003 4.03043C11.9503 3.4 11.1395 3 10.2395 3C8.58512 3 7.23947 4.34565 7.23947 6C7.23947 6.5913 7.41121 7.14348 7.70904 7.6087H4.50034C4.11556 7.6087 3.80469 7.91957 3.80469 8.30435V12.6522C3.80469 12.7478 3.88295 12.8261 3.9786 12.8261H4.84817V20.3043C4.84817 20.6891 5.15904 21 5.54382 21H19.4569C19.8416 21 20.1525 20.6891 20.1525 20.3043V12.8261H21.0221C21.1177 12.8261 21.196 12.7478 21.196 12.6522V8.30435C21.196 7.91957 20.8851 7.6087 20.5003 7.6087ZM13.2395 6C13.2395 5.16087 13.9221 4.47826 14.7612 4.47826C15.6003 4.47826 16.2829 5.16087 16.2829 6C16.2829 6.83913 15.6003 7.52174 14.7612 7.52174H13.2395V6ZM10.2395 4.47826C11.0786 4.47826 11.7612 5.16087 11.7612 6V7.52174H10.2395C9.40034 7.52174 8.71773 6.83913 8.71773 6C8.71773 5.16087 9.40034 4.47826 10.2395 4.47826ZM5.28295 11.3478V9.08696H11.7612V11.3478H5.28295ZM6.32643 12.8261H11.7612V19.5217H6.32643V12.8261ZM18.6743 19.5217H13.2395V12.8261H18.6743V19.5217ZM19.7177 11.3478H13.2395V9.08696H19.7177V11.3478Z" fill="#92939E" stroke="white" stroke-width="0.33"/>
</svg>
