<svg width="16" height="18" viewBox="0 0 16 18" fill="none" xmlns="http://www.w3.org/2000/svg">
<path d="M11.5714 11.5714H3.85714C2.83416 11.5714 1.85309 11.9778 1.12973 12.7011C0.406377 13.4245 0 14.4056 0 15.4286V18H2.57143V15.4286C2.57143 15.0876 2.70689 14.7605 2.94801 14.5194C3.18912 14.2783 3.51615 14.1428 3.85714 14.1428H11.5714C11.9124 14.1428 12.2394 14.2783 12.4806 14.5194C12.7217 14.7605 12.8571 15.0876 12.8571 15.4286V18H15.4286V15.4286C15.4286 14.4056 15.0222 13.4245 14.2988 12.7011C13.5755 11.9778 12.5944 11.5714 11.5714 11.5714Z" fill="#92939E"/>
<path d="M7.71439 10.2857C8.73155 10.2857 9.72587 9.98409 10.5716 9.41899C11.4173 8.85388 12.0765 8.05068 12.4658 7.11095C12.855 6.17121 12.9569 5.13715 12.7584 4.13954C12.56 3.14192 12.0702 2.22555 11.3509 1.50631C10.6317 0.787069 9.71533 0.297259 8.71771 0.0988209C7.7201 -0.0996174 6.68604 0.0022283 5.7463 0.391479C4.80657 0.78073 4.00337 1.4399 3.43826 2.28564C2.87316 3.13138 2.57153 4.1257 2.57153 5.14286C2.57153 6.50683 3.11337 7.81494 4.07784 8.77941C5.04231 9.74388 6.35042 10.2857 7.71439 10.2857ZM7.71439 2.57143C8.22297 2.57143 8.72013 2.72224 9.143 3.00479C9.56587 3.28735 9.89546 3.68895 10.0901 4.15882C10.2847 4.62868 10.3356 5.14571 10.2364 5.64452C10.1372 6.14333 9.89229 6.60151 9.53266 6.96113C9.17304 7.32075 8.71486 7.56566 8.21605 7.66488C7.71724 7.7641 7.20021 7.71318 6.73035 7.51855C6.26048 7.32392 5.85888 6.99434 5.57633 6.57147C5.29377 6.1486 5.14296 5.65144 5.14296 5.14286C5.14296 4.46087 5.41388 3.80682 5.89612 3.32458C6.37835 2.84235 7.03241 2.57143 7.71439 2.57143Z" fill="#92939E"/>
</svg>
