<svg width="24" height="24" viewBox="0 0 24 24" fill="none" xmlns="http://www.w3.org/2000/svg">
<path d="M19.7143 5.57138V18.4285H4.28577V5.57138H19.7143ZM19.7143 4.28567H4.28577C3.94477 4.28567 3.42857 4.28564 3 4.28568C3 4.71423 3.00006 5.23038 3.00006 5.57138V18.4285C3.00006 18.7695 3.00001 19.2856 3.00001 19.7142C3.42858 19.7142 3.94477 19.7142 4.28577 19.7142H19.7143C20.0553 19.7142 20.5714 19.7142 21 19.7142C21 19.2856 21 18.7695 21 18.4285V5.57138C21 5.23038 21 4.71421 21 4.28564C20.5714 4.28564 20.0553 4.28567 19.7143 4.28567Z" fill="#92939E"/>
<path d="M10.0715 8.14282H5.57147V9.42853H10.0715V8.14282Z" fill="#92939E"/>
<path d="M8.14289 10.7141H5.57147V11.9998H8.14289V10.7141Z" fill="#92939E"/>
<path d="M16.4996 13.2856H12.6424C12.1309 13.2856 11.6404 13.4888 11.2787 13.8505C10.9171 14.2122 10.7139 14.7027 10.7139 15.2142V16.4999H11.9996V15.2142C11.9996 15.0437 12.0673 14.8802 12.1879 14.7596C12.3084 14.6391 12.4719 14.5714 12.6424 14.5714H16.4996C16.6701 14.5714 16.8336 14.6391 16.9541 14.7596C17.0747 14.8802 17.1424 15.0437 17.1424 15.2142V16.4999H18.4281V15.2142C18.4281 14.7027 18.2249 14.2122 17.8633 13.8505C17.5016 13.4888 17.0111 13.2856 16.4996 13.2856Z" fill="#92939E"/>
<path d="M14.5714 12.6428C15.08 12.6428 15.5772 12.492 16 12.2095C16.4229 11.9269 16.7525 11.5253 16.9471 11.0555C17.1417 10.5856 17.1927 10.0686 17.0934 9.56976C16.9942 9.07096 16.7493 8.61277 16.3897 8.25315C16.0301 7.89353 15.5719 7.64863 15.0731 7.54941C14.5743 7.45019 14.0572 7.50111 13.5874 7.69574C13.1175 7.89036 12.7159 8.21995 12.4334 8.64282C12.1508 9.06569 12 9.56284 12 10.0714C12 10.7534 12.2709 11.4075 12.7532 11.8897C13.2354 12.3719 13.8894 12.6428 14.5714 12.6428ZM14.5714 8.78571C14.8257 8.78571 15.0743 8.86112 15.2857 9.00239C15.4972 9.14367 15.6619 9.34447 15.7593 9.5794C15.8566 9.81433 15.882 10.0728 15.8324 10.3223C15.7828 10.5717 15.6604 10.8007 15.4806 10.9806C15.3007 11.1604 15.0717 11.2828 14.8223 11.3324C14.5728 11.382 14.3143 11.3566 14.0794 11.2593C13.8445 11.162 13.6437 10.9972 13.5024 10.7857C13.3611 10.5743 13.2857 10.3257 13.2857 10.0714C13.2857 9.73043 13.4212 9.40341 13.6623 9.16229C13.9034 8.92117 14.2304 8.78571 14.5714 8.78571Z" fill="#92939E"/>
</svg>
