<svg width="14" height="14" viewBox="0 0 14 14" fill="none" xmlns="http://www.w3.org/2000/svg">
<path d="M13.4969 6.75894L10.4511 1.54525C10.41 1.47447 10.351 1.41572 10.28 1.37488C10.2091 1.33404 10.1287 1.31253 10.0468 1.3125H3.95332C3.87154 1.3126 3.79121 1.33415 3.72036 1.37499C3.6495 1.41583 3.59059 1.47453 3.54951 1.54525L0.503196 6.75937C0.460492 6.83253 0.437988 6.91573 0.437988 7.00044C0.437988 7.08515 0.460492 7.16834 0.503196 7.2415L3.54995 12.4552C3.59103 12.5259 3.64994 12.5846 3.72079 12.6254C3.79165 12.6663 3.87198 12.6878 3.95376 12.6879H10.0473C10.129 12.6878 10.2094 12.6663 10.2802 12.6254C10.3511 12.5846 10.41 12.5259 10.4511 12.4552L13.4969 7.24062C13.5397 7.16746 13.5622 6.99956 13.5622 6.99956C13.5622 6.99956 13.5397 6.8321 13.4969 6.75894ZM6.50832 3.5H7.4927V8.3125H6.50832V3.5ZM7.00007 10.9375C6.87028 10.9375 6.7434 10.899 6.63548 10.8269C6.52756 10.7548 6.44345 10.6523 6.39378 10.5324C6.34411 10.4125 6.33111 10.2805 6.35643 10.1532C6.38175 10.0259 6.44425 9.90899 6.53603 9.81721C6.62781 9.72543 6.74474 9.66293 6.87204 9.63761C6.99934 9.61229 7.13129 9.62528 7.25121 9.67495C7.37112 9.72462 7.47361 9.80874 7.54572 9.91666C7.61783 10.0246 7.65632 10.1515 7.65632 10.2812C7.65632 10.4553 7.58718 10.6222 7.46411 10.7453C7.34104 10.8684 7.17412 10.9375 7.00007 10.9375Z" fill="#FD0211"/>
</svg>
