<svg width="24" height="24" viewBox="0 0 24 24" fill="none" xmlns="http://www.w3.org/2000/svg">
<g clip-path="url(#clip0_3925_6849)">
<path d="M12 7.5V3.9H3V20.1H21V7.5H12ZM6.6 18.3H4.8V16.5H6.6V18.3ZM6.6 14.7H4.8V12.9H6.6V14.7ZM6.6 11.1H4.8V9.3H6.6V11.1ZM6.6 7.5H4.8V5.7H6.6V7.5ZM10.2 18.3H8.4V16.5H10.2V18.3ZM10.2 14.7H8.4V12.9H10.2V14.7ZM10.2 11.1H8.4V9.3H10.2V11.1ZM10.2 7.5H8.4V5.7H10.2V7.5ZM19.2 18.3H12V16.5H13.8V14.7H12V12.9H13.8V11.1H12V9.3H19.2V18.3ZM17.4 11.1H15.6V12.9H17.4V11.1ZM17.4 14.7H15.6V16.5H17.4V14.7Z" fill="#92939E" stroke="white" stroke-width="0.4"/>
</g>
<defs>
<clipPath id="clip0_3925_6849">
<rect width="24" height="24" fill="white"/>
</clipPath>
</defs>
</svg>
