<svg width="24" height="24" viewBox="0 0 24 24" fill="none" xmlns="http://www.w3.org/2000/svg">
<path d="M12 2.8125C10.1829 2.8125 8.40658 3.35134 6.8957 4.36087C5.38483 5.37041 4.20724 6.8053 3.51186 8.4841C2.81648 10.1629 2.63454 12.0102 2.98904 13.7924C3.34354 15.5746 4.21857 17.2116 5.50346 18.4965C6.78836 19.7814 8.42541 20.6565 10.2076 21.011C11.9898 21.3655 13.8371 21.1835 15.5159 20.4881C17.1947 19.7928 18.6296 18.6152 19.6391 17.1043C20.6487 15.5934 21.1875 13.8171 21.1875 12C21.1875 9.56332 20.2195 7.22645 18.4965 5.50346C16.7736 3.78047 14.4367 2.8125 12 2.8125ZM12 19.875C10.4425 19.875 8.91993 19.4131 7.62489 18.5478C6.32985 17.6825 5.32049 16.4526 4.72445 15.0136C4.12841 13.5747 3.97246 11.9913 4.27632 10.4637C4.58018 8.93606 5.3302 7.53287 6.43154 6.43153C7.53288 5.3302 8.93607 4.58017 10.4637 4.27632C11.9913 3.97246 13.5747 4.12841 15.0136 4.72445C16.4526 5.32049 17.6825 6.32985 18.5478 7.62488C19.4131 8.91992 19.875 10.4425 19.875 12C19.875 14.0886 19.0453 16.0916 17.5685 17.5685C16.0916 19.0453 14.0886 19.875 12 19.875Z" fill="#92939E"/>
<path d="M12 17.9062C12.5437 17.9062 12.9844 17.4655 12.9844 16.9219C12.9844 16.3782 12.5437 15.9375 12 15.9375C11.4563 15.9375 11.0156 16.3782 11.0156 16.9219C11.0156 17.4655 11.4563 17.9062 12 17.9062Z" fill="#92939E"/>
<path d="M12.6563 6.75001H11.6719C11.2838 6.74914 10.8994 6.82494 10.5407 6.97304C10.1821 7.12114 9.85617 7.33863 9.58178 7.61303C9.30738 7.88742 9.08989 8.21332 8.94179 8.572C8.79369 8.93068 8.71789 9.31508 8.71876 9.70313V10.0313H10.0313V9.70313C10.0313 9.26801 10.2041 8.85071 10.5118 8.54304C10.8195 8.23536 11.2368 8.06251 11.6719 8.06251H12.6563C13.0914 8.06251 13.5087 8.23536 13.8164 8.54304C14.124 8.85071 14.2969 9.26801 14.2969 9.70313C14.2969 10.1383 14.124 10.5556 13.8164 10.8632C13.5087 11.1709 13.0914 11.3438 12.6563 11.3438H11.3438V14.2969H12.6563V12.6563C13.4395 12.6563 14.1906 12.3451 14.7444 11.7913C15.2983 11.2375 15.6094 10.4863 15.6094 9.70313C15.6094 8.91991 15.2983 8.16878 14.7444 7.61496C14.1906 7.06114 13.4395 6.75001 12.6563 6.75001Z" fill="#92939E"/>
</svg>
