<svg width="24" height="24" viewBox="0 0 24 24" fill="none" xmlns="http://www.w3.org/2000/svg">
<path d="M12 2C10.0222 2 8.08879 2.58649 6.4443 3.6853C4.79981 4.78412 3.51809 6.3459 2.76121 8.17316C2.00433 10.0004 1.8063 12.0111 2.19215 13.9509C2.578 15.8907 3.53041 17.6725 4.92894 19.0711C6.32746 20.4696 8.10929 21.422 10.0491 21.8078C11.9889 22.1937 13.9996 21.9957 15.8268 21.2388C17.6541 20.4819 19.2159 19.2002 20.3147 17.5557C21.4135 15.9112 22 13.9778 22 12C22 9.34783 20.9464 6.80429 19.0711 4.92893C17.1957 3.05357 14.6522 2 12 2ZM10.5714 15.9934L7 12.422L8.13615 11.2857L10.5714 13.7209L15.8643 8.42857L17.0041 9.56136L10.5714 15.9934Z" fill="#0092FF"/>
<path d="M10.5714 15.9935L7 12.4221L8.13643 11.2857L10.5714 13.7207L15.8643 8.42853L17.0036 9.56067L10.5714 15.9935Z" fill="white"/>
</svg>
