<svg width="24" height="24" viewBox="0 0 24 24" fill="none" xmlns="http://www.w3.org/2000/svg">
<path d="M19.7143 6.07073V17.9278H4.28577V6.07073H19.7143ZM19.7143 4.78502H4.28577C3.94477 4.78502 3.42857 4.785 3 4.78504C3 5.21358 3.00006 5.72974 3.00006 6.07073V17.9278C3.00006 18.2688 3.00001 18.785 3.00001 19.2135C3.42858 19.2135 3.94477 19.2135 4.28577 19.2135H19.7143C20.0553 19.2135 20.5714 19.2135 21 19.2135C21 18.785 21 18.2688 21 17.9278V6.07073C21 5.72974 21 5.21357 21 4.785C20.5714 4.785 20.0553 4.78502 19.7143 4.78502Z" fill="#92939E"/>
<path d="M13.9361 14.7352H10.079C9.56747 14.7352 9.07693 14.9384 8.71525 15.3001C8.35358 15.6617 8.15039 16.1523 8.15039 16.6638V17.9495H9.4361V16.6638C9.4361 16.4933 9.50383 16.3298 9.62439 16.2092C9.74495 16.0886 9.90846 16.0209 10.079 16.0209H13.9361C14.1066 16.0209 14.2701 16.0886 14.3907 16.2092C14.5112 16.3298 14.5789 16.4933 14.5789 16.6638V17.9495H15.8647V16.6638C15.8647 16.1523 15.6615 15.6617 15.2998 15.3001C14.9381 14.9384 14.4476 14.7352 13.9361 14.7352Z" fill="#92939E"/>
<path d="M12.007 14.0924C12.5155 14.0924 13.0127 13.9416 13.4356 13.659C13.8584 13.3765 14.188 12.9749 14.3827 12.505C14.5773 12.0351 14.6282 11.5181 14.529 11.0193C14.4298 10.5205 14.1849 10.0623 13.8252 9.7027C13.4656 9.34308 13.0074 9.09818 12.5086 8.99896C12.0098 8.89974 11.4928 8.95066 11.0229 9.14529C10.5531 9.33991 10.1515 9.6695 9.86891 10.0924C9.58636 10.5152 9.43555 11.0124 9.43555 11.521C9.43555 12.203 9.70646 12.857 10.1887 13.3392C10.6709 13.8215 11.325 14.0924 12.007 14.0924ZM12.007 10.2353C12.2613 10.2353 12.5098 10.3107 12.7213 10.4519C12.9327 10.5932 13.0975 10.794 13.1948 11.029C13.2921 11.2639 13.3176 11.5224 13.268 11.7718C13.2184 12.0212 13.0959 12.2503 12.9161 12.4301C12.7363 12.6099 12.5072 12.7324 12.2578 12.782C12.0084 12.8316 11.7499 12.8061 11.5149 12.7088C11.28 12.6115 11.0792 12.4467 10.9379 12.2353C10.7967 12.0238 10.7213 11.7753 10.7213 11.521C10.7213 11.18 10.8567 10.853 11.0978 10.6118C11.339 10.3707 11.666 10.2353 12.007 10.2353Z" fill="#92939E"/>
</svg>
