<svg width="24" height="24" viewBox="0 0 24 24" fill="none" xmlns="http://www.w3.org/2000/svg">
<path d="M22.2712 11.7662C21.4859 9.71119 20.1166 7.93078 18.3319 6.64437L21.625 3.34438L20.6556 2.375L2.375 20.6556L3.34438 21.625L6.85063 18.1256C8.41567 19.0378 10.1888 19.5325 12 19.5625C14.2409 19.4782 16.408 18.7392 18.2334 17.4367C20.0589 16.1342 21.4626 14.3254 22.2712 12.2338C22.3259 12.0827 22.3259 11.9173 22.2712 11.7662ZM12 16.4688C11.0524 16.4683 10.1297 16.1648 9.36688 15.6025L10.625 14.3581C11.1467 14.644 11.747 14.7529 12.3358 14.6687C12.9247 14.5845 13.4703 14.3116 13.891 13.891C14.3116 13.4703 14.5845 12.9247 14.6687 12.3358C14.7529 11.747 14.644 11.1467 14.3581 10.625L15.6025 9.38062C16.0868 10.0458 16.3778 10.832 16.4432 11.6523C16.5086 12.4726 16.3458 13.2949 15.973 14.0285C15.6002 14.762 15.0318 15.3782 14.3306 15.8089C13.6295 16.2395 12.8229 16.4679 12 16.4688Z" fill="#AEB3BE"/>
<path d="M4.11408 15.9944L7.55158 12.5569C7.53371 12.3718 7.52682 12.1859 7.53096 12C7.53278 10.8154 8.00417 9.67978 8.84183 8.84212C9.67949 8.00447 10.8151 7.53307 11.9997 7.53125C12.1813 7.53221 12.3626 7.54369 12.5428 7.56563L15.1416 4.97375C14.1302 4.62636 13.0691 4.44526 11.9997 4.4375C9.75881 4.52177 7.59172 5.26082 5.76628 6.56331C3.94084 7.8658 2.53707 9.67463 1.72846 11.7663C1.67385 11.9173 1.67385 12.0827 1.72846 12.2338C2.25648 13.6381 3.06862 14.9183 4.11408 15.9944Z" fill="#AEB3BE"/>
</svg>
