<svg width="25" height="26" viewBox="0 0 25 26" fill="none" xmlns="http://www.w3.org/2000/svg">
<path d="M12.5005 1.71484C15.4935 1.71495 18.3636 2.90417 20.48 5.02051C22.5965 7.13699 23.7856 10.0078 23.7856 13.001C23.7856 15.2328 23.1242 17.4148 21.8843 19.2705C20.6442 21.1264 18.881 22.5726 16.8188 23.4268C14.7567 24.2809 12.4876 24.5048 10.2983 24.0693C8.10913 23.6339 6.09835 22.5588 4.52002 20.9805C2.94172 19.4021 1.86661 17.3913 1.43115 15.2021C0.99573 13.013 1.21956 10.7438 2.07373 8.68164C2.92789 6.6196 4.37421 4.85724 6.22998 3.61719C8.08591 2.3771 10.2684 1.71484 12.5005 1.71484Z" fill="#0092FF" stroke="white" stroke-width="2"/>
<path d="M14.7314 8.30273C14.9683 8.06591 15.3178 8.06586 15.5547 8.30273L17.6973 10.4453C17.9341 10.6822 17.9341 11.0317 17.6973 11.2686L11.0908 17.875H8.125V14.9092L14.7314 8.30273ZM12.9111 11.7686L9.33984 15.3398L9.30371 15.377V16.6963H10.623L10.6602 16.6602L14.2314 13.0889L14.3193 13L14.2314 12.9111L13.0889 11.7686L13 11.6807L12.9111 11.7686ZM15.0547 9.62598L13.9111 10.7686L13.8232 10.8574L15.1426 12.1768L15.2314 12.0889L16.374 10.9453L16.4629 10.8574L15.1426 9.53711L15.0547 9.62598Z" fill="white" stroke="#0092FF" stroke-width="0.25"/>
</svg>
