<svg width="14" height="14" viewBox="0 0 14 14" fill="none" xmlns="http://www.w3.org/2000/svg">
<path d="M7.0013 1.16663C5.84758 1.16663 4.71976 1.50875 3.76048 2.14973C2.80119 2.7907 2.05352 3.70174 1.61201 4.76765C1.1705 5.83355 1.05498 7.00644 1.28006 8.13799C1.50514 9.26955 2.06071 10.3089 2.87651 11.1248C3.69232 11.9406 4.73172 12.4961 5.86328 12.7212C6.99483 12.9463 8.16772 12.8308 9.23362 12.3893C10.2995 11.9478 11.2106 11.2001 11.8515 10.2408C12.4925 9.2815 12.8346 8.15369 12.8346 6.99997C12.8346 5.45287 12.2201 3.96914 11.1261 2.87518C10.0321 1.78122 8.5484 1.16663 7.0013 1.16663ZM6.16797 9.32946L4.08464 7.24613L4.74739 6.5833L6.16797 8.0038L9.25547 4.91663L9.92034 5.57742L6.16797 9.32946Z" fill="#1CD155"/>
</svg>
