<svg width="24" height="24" viewBox="0 0 24 24" fill="none" xmlns="http://www.w3.org/2000/svg">
<path d="M21.4567 20H2.54761C2.35472 20 1.82031 20 1.82031 20C1.82031 19.5152 1.82033 19.4656 1.82033 19.2727V6.90909C1.82033 6.71621 1.82032 6.42424 1.82032 6.18182C2.06008 6.18182 2.35472 6.18182 2.54761 6.18182H7.24579L8.48942 4.32727C8.55531 4.22723 8.64488 4.14501 8.75019 4.08791C8.85549 4.03082 8.97327 4.00062 9.09306 4H14.9112C15.031 4.00062 15.1488 4.03082 15.2541 4.08791C15.3594 4.14501 15.449 4.22723 15.5149 4.32727L16.7585 6.18182H21.4567C21.6496 6.18182 21.9198 6.18182 22.184 6.18182C22.184 6.42424 22.184 6.71621 22.184 6.90909V19.2727C22.184 19.4656 22.184 20 22.184 20C22.184 20 21.6496 20 21.4567 20ZM3.27488 18.5455H20.7294V7.63636H16.3658C16.246 7.63574 16.1282 7.60555 16.0229 7.54845C15.9176 7.49136 15.828 7.40914 15.7622 7.30909L14.5185 5.45455H9.48579L8.24215 7.30909C8.17627 7.40914 8.0867 7.49136 7.98139 7.54845C7.87608 7.60555 7.7583 7.63574 7.63851 7.63636H3.27488V18.5455Z" fill="#92939E"/>
<path d="M12.0021 16.7273C11.211 16.7273 10.4376 16.4927 9.7798 16.0532C9.122 15.6136 8.60931 14.9889 8.30656 14.258C8.00381 13.5271 7.92459 12.7229 8.07894 11.9469C8.23328 11.171 8.61424 10.4583 9.17365 9.89887C9.73306 9.33946 10.4458 8.9585 11.2217 8.80416C11.9976 8.64981 12.8019 8.72903 13.5328 9.03178C14.2637 9.33453 14.8884 9.84722 15.328 10.505C15.7675 11.1628 16.0021 11.9362 16.0021 12.7273C16.0021 13.7882 15.5806 14.8056 14.8305 15.5557C14.0804 16.3059 13.0629 16.7273 12.0021 16.7273ZM12.0021 10.0606C11.4747 10.0606 10.9591 10.217 10.5206 10.51C10.082 10.8031 9.74023 11.2195 9.5384 11.7068C9.33656 12.1941 9.28376 12.7303 9.38665 13.2475C9.48954 13.7648 9.74352 14.24 10.1165 14.6129C10.4894 14.9859 10.9646 15.2398 11.4818 15.3427C11.9991 15.4456 12.5353 15.3928 13.0226 15.191C13.5098 14.9891 13.9263 14.6473 14.2193 14.2088C14.5123 13.7703 14.6687 13.2547 14.6687 12.7273C14.6687 12.0201 14.3878 11.3418 13.8877 10.8417C13.3876 10.3416 12.7093 10.0606 12.0021 10.0606Z" fill="#92939E"/>
</svg>
