<svg width="14" height="14" viewBox="0 0 14 14" fill="none" xmlns="http://www.w3.org/2000/svg">
<g clip-path="url(#clip0_3925_7979)">
<path d="M7 0.875C5.78859 0.875 4.60439 1.23423 3.59713 1.90725C2.58988 2.58027 1.80483 3.53687 1.34124 4.65606C0.877654 5.77526 0.756358 7.00679 0.992693 8.19493C1.22903 9.38306 1.81238 10.4744 2.66897 11.331C3.52557 12.1876 4.61694 12.771 5.80507 13.0073C6.99321 13.2436 8.22474 13.1223 9.34394 12.6588C10.4631 12.1952 11.4197 11.4101 12.0928 10.4029C12.7658 9.39562 13.125 8.21141 13.125 7C13.125 5.37555 12.4797 3.81763 11.331 2.66897C10.1824 1.52031 8.62445 0.875 7 0.875ZM7 3.5C7.1298 3.5 7.25668 3.53849 7.3646 3.6106C7.47252 3.68271 7.55663 3.7852 7.6063 3.90511C7.65597 4.02503 7.66896 4.15698 7.64364 4.28428C7.61832 4.41158 7.55582 4.52851 7.46404 4.62029C7.37226 4.71207 7.25533 4.77457 7.12803 4.79989C7.00073 4.82521 6.86878 4.81222 6.74887 4.76255C6.62895 4.71288 6.52646 4.62876 6.45435 4.52084C6.38224 4.41292 6.34375 4.28604 6.34375 4.15625C6.34375 3.9822 6.41289 3.81528 6.53596 3.69221C6.65903 3.56914 6.82595 3.5 7 3.5ZM8.75 10.5547H5.25V9.57031H6.50781V7.05469H5.6875V6.07031H7.49219V9.57031H8.75V10.5547Z" fill="#AEB3BE"/>
</g>
<defs>
<clipPath id="clip0_3925_7979">
<rect width="14" height="14" fill="white"/>
</clipPath>
</defs>
</svg>
