<svg width="16" height="16" viewBox="0 0 16 16" fill="none" xmlns="http://www.w3.org/2000/svg">
<g clip-path="url(#clip0_1711_38188)">
<path d="M13.6004 12.8008H2.40039V13.6008H13.6004V12.8008Z" fill="white" stroke="white" stroke-width="0.05"/>
<path d="M12.4002 6.00022C12.5063 6.00022 12.608 5.95808 12.683 5.88306C12.7581 5.80805 12.8002 5.70631 12.8002 5.60022V4.40022C12.8002 4.31802 12.7748 4.23782 12.7276 4.17054C12.6803 4.10326 12.6135 4.05217 12.5362 4.02422L8.13619 2.42422C8.04831 2.39245 7.95208 2.39245 7.86419 2.42422L3.4642 4.02422C3.38689 4.05217 3.32007 4.10326 3.27283 4.17054C3.22559 4.23782 3.20023 4.31802 3.2002 4.40022V5.60022C3.2002 5.70631 3.24234 5.80805 3.31735 5.88306C3.39237 5.95808 3.49411 6.00022 3.6002 6.00022H4.0002V11.2002H3.2002V12.0002H12.8002V11.2002H12.0002V6.00022H12.4002ZM4.0002 4.68022L8.00019 3.22422L12.0002 4.68022V5.20022H4.0002V4.68022ZM8.80019 11.2002H7.20019V6.00022H8.80019V11.2002ZM4.8002 6.00022H6.40019V11.2002H4.8002V6.00022ZM11.2002 11.2002H9.60019V6.00022H11.2002V11.2002Z" fill="white" stroke="white" stroke-width="0.05"/>
</g>
<defs>
<clipPath id="clip0_1711_38188">
<rect width="16" height="16" fill="white"/>
</clipPath>
</defs>
</svg>
