<?xml version="1.0" encoding="UTF-8" standalone="no"?>
<!-- Created with Inkscape (http://www.inkscape.org/) -->

<svg
   version="1.1"
   id="svg2"
   width="26.666668"
   height="26.666668"
   viewBox="0 0 26.666668 26.666668"
   xmlns="http://www.w3.org/2000/svg"
   xmlns:svg="http://www.w3.org/2000/svg">
  <defs
     id="defs6" />
  <g
     id="g8"
     transform="matrix(1.3333333,0,0,-1.3333333,0,26.666667)">
    <g
       id="g10"
       transform="translate(2.5,2.5)">
      <path
         d="m 7.523334,3.141042 c 0.184166,0 0.339583,0.06361 0.466249,0.190833 0.126667,0.127222 0.190001,0.282916 0.190001,0.467083 0,0.184305 -0.063611,0.339722 -0.190834,0.466249 C 7.861528,4.391874 7.705764,4.455208 7.521459,4.455208 7.337292,4.455208 7.181875,4.391597 7.055208,4.264375 6.92868,4.137153 6.865417,3.981389 6.865417,3.797083 6.865417,3.612917 6.929028,3.4575 7.056251,3.330833 7.183473,3.204306 7.339167,3.141042 7.523334,3.141042 Z M 7.092916,5.900625 H 7.8975 c 0.021389,0.362222 0.089445,0.656596 0.204167,0.883125 0.114861,0.226389 0.351249,0.515347 0.709166,0.866875 0.371806,0.371805 0.648542,0.704861 0.83021,0.999167 0.181666,0.294306 0.272499,0.635 0.272499,1.022083 0,0.656805 -0.230764,1.180208 -0.692291,1.570208 -0.461528,0.389862 -1.007501,0.584792 -1.637918,0.584792 -0.599305,0 -1.108124,-0.162917 -1.526458,-0.488751 C 5.638681,11.012291 5.332361,10.637847 5.137917,10.214791 L 5.90375,9.8975 c 0.133612,0.303333 0.324583,0.571458 0.572917,0.804375 0.248472,0.232917 0.606666,0.349375 1.074583,0.349375 0.540555,0 0.935347,-0.148195 1.184375,-0.444583 C 8.984514,10.310139 9.108958,9.983959 9.108958,9.628125 9.108958,9.339653 9.030972,9.081944 8.875,8.855 8.719028,8.627916 8.516043,8.399514 8.266043,8.169792 7.783125,7.724375 7.466876,7.346735 7.317292,7.036875 7.167709,6.727014 7.092916,6.348264 7.092916,5.900625 Z M 7.502708,0 C 6.465625,0 5.490556,0.196804 4.5775,0.590416 3.664583,0.984027 2.870417,1.518194 2.195,2.192917 1.519583,2.867639 0.98493,3.661111 0.591042,4.573333 0.197014,5.485416 0,6.460069 0,7.497292 c 0,1.037082 0.196805,2.012153 0.590417,2.925209 0.393611,0.912916 0.927777,1.707082 1.6025,2.382499 0.674722,0.675417 1.468194,1.21007 2.380416,1.603958 C 5.485416,14.802986 6.46007,15 7.497292,15 c 1.037083,0 2.012153,-0.196806 2.925209,-0.590417 0.912917,-0.393611 1.707083,-0.927777 2.382499,-1.6025 0.675417,-0.674723 1.21007,-1.468195 1.603958,-2.380417 C 14.802987,9.514583 15,8.53993 15,7.502708 15,6.465625 14.803194,5.490556 14.409583,4.577499 14.015972,3.664583 13.481806,2.870416 12.807083,2.195 12.132361,1.519583 11.338889,0.98493 10.426666,0.591042 9.514584,0.197013 8.539931,0 7.502708,0 Z M 7.5,0.833333 c 1.861112,0 3.4375,0.645833 4.729167,1.9375 1.291667,1.291667 1.9375,2.868055 1.9375,4.729167 0,1.861111 -0.645833,3.4375 -1.9375,4.729166 C 10.9375,13.520833 9.361112,14.166667 7.5,14.166667 c -1.861111,0 -3.4375,-0.645834 -4.729167,-1.937501 C 1.479167,10.9375 0.833333,9.361111 0.833333,7.5 c 0,-1.861112 0.645834,-3.4375 1.9375,-4.729167 C 4.0625,1.479166 5.638889,0.833333 7.5,0.833333 Z"
         style="fill:#bebebe;fill-opacity:1;fill-rule:nonzero;stroke:none"
         id="path12" />
    </g>
  </g>
</svg>
