<svg width="24" height="24" viewBox="0 0 24 24" fill="none" xmlns="http://www.w3.org/2000/svg">
<path d="M12.0004 6.85713C11.3647 6.85713 10.7432 7.04565 10.2147 7.39884C9.68607 7.75203 9.27409 8.25403 9.03081 8.84136C8.78753 9.4287 8.72387 10.075 8.8479 10.6985C8.97192 11.322 9.27805 11.8947 9.72758 12.3443C10.1771 12.7938 10.7498 13.0999 11.3733 13.2239C11.9969 13.348 12.6431 13.2843 13.2305 13.041C13.8178 12.7977 14.3198 12.3858 14.673 11.8572C15.0262 11.3286 15.2147 10.7071 15.2147 10.0714C15.2147 9.21894 14.8761 8.40137 14.2733 7.79857C13.6705 7.19578 12.8529 6.85713 12.0004 6.85713ZM12.0004 12C11.619 12 11.2461 11.8869 10.929 11.675C10.6118 11.4631 10.3646 11.1618 10.2187 10.8094C10.0727 10.457 10.0345 10.0693 10.1089 9.69517C10.1833 9.32107 10.367 8.97743 10.6367 8.70771C10.9064 8.438 11.2501 8.25432 11.6242 8.1799C11.9983 8.10549 12.3861 8.14368 12.7385 8.28965C13.0909 8.43562 13.3921 8.68281 13.604 8.99996C13.8159 9.31711 13.929 9.68998 13.929 10.0714C13.9285 10.5827 13.7251 11.073 13.3636 11.4346C13.002 11.7961 12.5118 11.9995 12.0004 12Z" fill="#92939E"/>
<path d="M12 3C10.22 3 8.47991 3.52784 6.99987 4.51677C5.51983 5.50571 4.36628 6.91131 3.68509 8.55585C3.0039 10.2004 2.82567 12.01 3.17294 13.7558C3.5202 15.5016 4.37737 17.1053 5.63604 18.364C6.89471 19.6226 8.49836 20.4798 10.2442 20.8271C11.99 21.1743 13.7996 20.9961 15.4442 20.3149C17.0887 19.6337 18.4943 18.4802 19.4832 17.0001C20.4722 15.5201 21 13.78 21 12C20.9973 9.61389 20.0482 7.32628 18.361 5.63905C16.6737 3.95181 14.3861 3.00272 12 3ZM8.14286 18.6709V17.7857C8.14337 17.2744 8.34672 16.7841 8.70829 16.4226C9.06986 16.061 9.5601 15.8577 10.0714 15.8571H13.9286C14.4399 15.8577 14.9301 16.061 15.2917 16.4226C15.6533 16.7841 15.8566 17.2744 15.8571 17.7857V18.6709C14.6866 19.3544 13.3555 19.7146 12 19.7146C10.6445 19.7146 9.3134 19.3544 8.14286 18.6709ZM17.1377 17.7381C17.1249 16.8949 16.7814 16.0905 16.1811 15.4982C15.5808 14.9058 14.7719 14.573 13.9286 14.5714H10.0714C9.22812 14.573 8.41918 14.9058 7.81892 15.4982C7.21865 16.0905 6.8751 16.8949 6.86229 17.7381C5.69651 16.6972 4.8744 15.3267 4.50483 13.8081C4.13525 12.2896 4.23564 10.6946 4.7927 9.23434C5.34976 7.7741 6.33722 6.5175 7.62431 5.63094C8.91141 4.74437 10.4374 4.26966 12.0003 4.26966C13.5632 4.26966 15.0892 4.74437 16.3763 5.63094C17.6634 6.5175 18.6509 7.7741 19.2079 9.23434C19.765 10.6946 19.8654 12.2896 19.4958 13.8081C19.1262 15.3267 18.3041 16.6972 17.1384 17.7381H17.1377Z" fill="#92939E"/>
</svg>
