<svg width="25" height="25" viewBox="0 0 25 25" fill="none" xmlns="http://www.w3.org/2000/svg">
<g clip-path="url(#clip0_3925_11406)">
<path d="M12.9238 3.64798C12.8009 3.55208 12.6495 3.5 12.4936 3.5C12.3377 3.5 12.1863 3.55208 12.0634 3.64798L2.11523 11.4057L2.97557 12.4938L4.19216 11.5452V20.1154C4.19291 20.4824 4.19216 21 4.19216 21.5C4.5 21.5 5.20979 21.4993 5.57678 21.5H19.423C19.79 21.4993 20.5 21.5 20.8076 21.5C20.8076 20.8984 20.8069 20.4824 20.8076 20.1154V11.5515L22.0242 12.5L22.8845 11.4118L12.9238 3.64798ZM13.8845 20.1154H11.1153V14.5769H13.8845V20.1154ZM15.2691 20.1154V14.5769C15.2687 14.2098 15.2691 13.5491 15.2691 13.1923C14.9409 13.1923 14.2516 13.1927 13.8845 13.1923H11.1153C10.7481 13.1927 10 13.1923 9.73064 13.1923C9.73064 13.5 9.731 14.2098 9.73064 14.5769V20.1154H5.57678V10.4656L12.4999 5.07254L19.423 10.4729V20.1154H15.2691Z" fill="#0092FF"/>
</g>
<defs>
<clipPath id="clip0_3925_11406">
<rect width="24" height="24" fill="white" transform="translate(0.5 0.5)"/>
</clipPath>
</defs>
</svg>
