<svg width="24" height="24" viewBox="0 0 24 24" fill="none" xmlns="http://www.w3.org/2000/svg">
<path d="M12 14.75C13.5188 14.75 14.75 13.5188 14.75 12C14.75 10.4812 13.5188 9.25 12 9.25C10.4812 9.25 9.25 10.4812 9.25 12C9.25 13.5188 10.4812 14.75 12 14.75Z" fill="#AEB3BE"/>
<path d="M22.271 11.7662C21.4623 9.67463 20.0586 7.8658 18.2331 6.56331C16.4077 5.26082 14.2406 4.52177 11.9997 4.4375C9.75881 4.52177 7.59172 5.26082 5.76628 6.56331C3.94084 7.8658 2.53707 9.67463 1.72846 11.7662C1.67385 11.9173 1.67385 12.0827 1.72846 12.2338C2.53707 14.3254 3.94084 16.1342 5.76628 17.4367C7.59172 18.7392 9.75881 19.4782 11.9997 19.5625C14.2406 19.4782 16.4077 18.7392 18.2331 17.4367C20.0586 16.1342 21.4623 14.3254 22.271 12.2338C22.3256 12.0827 22.3256 11.9173 22.271 11.7662ZM11.9997 16.4688C11.1159 16.4688 10.2519 16.2067 9.517 15.7156C8.78212 15.2246 8.20935 14.5267 7.87112 13.7101C7.53289 12.8936 7.4444 11.995 7.61682 11.1282C7.78925 10.2613 8.21486 9.46508 8.83982 8.84012C9.46479 8.21515 10.261 7.78954 11.1279 7.61712C11.9948 7.44469 12.8933 7.53318 13.7098 7.87141C14.5264 8.20964 15.2243 8.78241 15.7153 9.5173C16.2064 10.2522 16.4685 11.1162 16.4685 12C16.4666 13.1846 15.9952 14.3202 15.1576 15.1579C14.3199 15.9955 13.1843 16.4669 11.9997 16.4688Z" fill="#AEB3BE"/>
</svg>
