<svg width="24" height="24" viewBox="0 0 24 24" fill="none" xmlns="http://www.w3.org/2000/svg">
<path d="M17.1672 5.30223C17.096 5.30223 17.0249 5.28444 16.9626 5.24886C15.2548 4.36828 13.7783 3.9947 11.9993 3.9947C10.2471 3.9947 8.57486 4.41275 7.05386 5.24886C6.84039 5.36449 6.57354 5.28444 6.44902 5.07097C6.33338 4.85749 6.41344 4.58176 6.62691 4.46612C8.28134 3.54996 10.0959 3.10522 11.9993 3.10522C13.9028 3.10522 15.5573 3.52328 17.3718 4.43944C17.5942 4.57286 17.6742 4.8397 17.5586 5.05318C17.4785 5.21328 17.3362 5.30223 17.1672 5.30223ZM4.4388 9.97198C4.34985 9.97198 4.2609 9.9453 4.18085 9.89193C3.99406 9.74961 3.9318 9.47388 4.07411 9.2693C4.9547 8.02403 6.07544 7.0456 7.40965 6.36071C10.2204 4.91976 13.7783 4.91086 16.5802 6.35181C17.9144 7.03671 19.0351 7.99734 19.9157 9.24261C20.058 9.4383 20.0046 9.72293 19.809 9.86524C19.6044 10.0076 19.3286 9.96309 19.1863 9.7763C18.3858 8.63777 17.3718 7.75719 16.171 7.14345C13.6182 5.83592 10.3538 5.83592 7.80991 7.15234C6.60023 7.77498 5.58622 8.66445 4.7857 9.7763C4.71454 9.90972 4.58112 9.97198 4.4388 9.97198ZM9.99803 20.708C9.88239 20.708 9.77566 20.6635 9.68671 20.5745C8.91287 19.8007 8.49481 19.3026 7.89886 18.2263C7.28512 17.1323 6.96491 15.7981 6.96491 14.366C6.96491 11.7242 9.22418 9.57172 11.9993 9.57172C14.7745 9.57172 17.0338 11.7242 17.0338 14.366C17.0338 14.4839 16.9869 14.5971 16.9035 14.6805C16.8201 14.7639 16.707 14.8107 16.589 14.8107C16.4711 14.8107 16.358 14.7639 16.2746 14.6805C16.1912 14.5971 16.1443 14.4839 16.1443 14.366C16.1443 12.2135 14.2853 10.4612 11.9993 10.4612C9.71339 10.4612 7.85439 12.2135 7.85439 14.366C7.85439 15.6468 8.13902 16.8298 8.6816 17.7816C9.25087 18.8134 9.64224 19.2492 10.3271 19.943C10.4961 20.1209 10.4961 20.3966 10.3271 20.5745C10.2204 20.6635 10.1137 20.708 9.99803 20.708ZM16.3756 19.0624C15.3171 19.0624 14.3831 18.7956 13.6182 18.2708C12.2929 17.3724 11.5012 15.9137 11.5012 14.366C11.5012 14.248 11.5481 14.1349 11.6315 14.0515C11.7149 13.9681 11.828 13.9213 11.946 13.9213C12.0639 13.9213 12.1771 13.9681 12.2605 14.0515C12.3439 14.1349 12.3907 14.248 12.3907 14.366C12.3907 15.6202 13.0311 16.8032 14.1163 17.5325C14.7478 17.9595 15.4861 18.1641 16.3756 18.1641C16.589 18.1641 16.9448 18.1374 17.3006 18.0751C17.5408 18.0306 17.7809 18.1907 17.8165 18.4398C17.861 18.6711 17.7009 18.9112 17.4518 18.9557C16.9448 19.0535 16.5001 19.0624 16.3756 19.0624ZM14.5877 20.8948C14.5521 20.8948 14.5077 20.8948 14.4721 20.8948C13.0578 20.4856 12.1328 19.9608 11.1632 19.0091C9.91797 17.7816 9.23308 16.1272 9.23308 14.366C9.23308 12.925 10.4606 11.7509 11.9727 11.7509C13.4848 11.7509 14.7123 12.925 14.7123 14.366C14.7123 15.3177 15.5573 16.0916 16.5624 16.0916C17.5853 16.0916 18.4125 15.3177 18.4125 14.366C18.4125 11.0127 15.5217 8.29087 11.9638 8.29087C9.43766 8.29087 7.10723 9.69624 6.08433 11.8755C5.73743 12.5959 5.55954 13.4409 5.55954 14.366C5.55954 15.0598 5.6218 16.1538 6.15549 17.577C6.24444 17.8083 6.1288 18.0662 5.89754 18.1463C5.66628 18.2263 5.40833 18.1107 5.32828 17.8883C4.88354 16.7231 4.67896 15.5579 4.67896 14.366C4.67896 13.2986 4.88354 12.3291 5.2838 11.4841C6.46681 9.00245 9.09076 7.3925 11.9638 7.3925C16.002 7.3925 19.3019 10.5146 19.3019 14.3571C19.3019 15.7981 18.0745 16.9722 16.5624 16.9722C15.0503 16.9722 13.8228 15.7981 13.8228 14.3571C13.8228 13.4054 12.9956 12.6315 11.9727 12.6315C10.9498 12.6315 10.1226 13.4054 10.1226 14.3571C10.1226 15.8781 10.7096 17.3013 11.7859 18.3686C12.6309 19.2047 13.4403 19.6673 14.6945 20.0053C14.9346 20.0764 15.068 20.3255 15.0058 20.5568C14.9613 20.7613 14.7745 20.8948 14.5877 20.8948Z" fill="#92939E" stroke="#92939E" stroke-width="0.156966"/>
</svg>
