<svg width="24" height="24" viewBox="0 0 24 24" fill="none" xmlns="http://www.w3.org/2000/svg">
<path d="M20.8889 7.12077H17.3236C17.6521 6.60386 17.8454 5.99034 17.8454 5.33333C17.8454 3.49517 16.3502 2 14.512 2C13.512 2 12.6111 2.44444 12 3.14493C11.3889 2.44444 10.4879 2 9.48789 2C7.64973 2 6.15456 3.49517 6.15456 5.33333C6.15456 5.99034 6.34538 6.60386 6.6763 7.12077H3.11108C2.68355 7.12077 2.33813 7.46618 2.33813 7.89372V12.7246C2.33813 12.8309 2.42509 12.9179 2.53137 12.9179H3.49756V21.2271C3.49756 21.6546 3.84297 22 4.2705 22H19.7294C20.157 22 20.5024 21.6546 20.5024 21.2271V12.9179H21.4686C21.5748 12.9179 21.6618 12.8309 21.6618 12.7246V7.89372C21.6618 7.46618 21.3164 7.12077 20.8889 7.12077ZM12.8212 5.33333C12.8212 4.40097 13.5797 3.64251 14.512 3.64251C15.4444 3.64251 16.2029 4.40097 16.2029 5.33333C16.2029 6.2657 15.4444 7.02415 14.512 7.02415H12.8212V5.33333ZM9.48789 3.64251C10.4203 3.64251 11.1787 4.40097 11.1787 5.33333V7.02415H9.48789C8.55553 7.02415 7.79707 6.2657 7.79707 5.33333C7.79707 4.40097 8.55553 3.64251 9.48789 3.64251ZM3.98065 11.2754V8.76328H11.1787V11.2754H3.98065ZM5.14007 12.9179H11.1787V20.3575H5.14007V12.9179ZM18.8599 20.3575H12.8212V12.9179H18.8599V20.3575ZM20.0193 11.2754H12.8212V8.76328H20.0193V11.2754Z" fill="#0A0A0C"/>
</svg>
