<svg width="24" height="24" viewBox="0 0 24 24" fill="none" xmlns="http://www.w3.org/2000/svg">
<g clip-path="url(#clip0_3925_11041)">
<path d="M14.8576 4C14.0545 3.99979 13.2626 4.18771 12.5452 4.5487C11.8278 4.90968 11.205 5.43369 10.7266 6.07873C10.2482 6.72377 9.92755 7.47191 9.79035 8.26318C9.65316 9.05446 9.70323 9.86687 9.93654 10.6353L4.00049 16.5714V20H7.42906L13.3651 14.0639C14.0725 14.2787 14.8179 14.3384 15.5505 14.2391C16.283 14.1397 16.9856 13.8836 17.6102 13.4881C18.2348 13.0927 18.7668 12.5672 19.17 11.9476C19.5732 11.3279 19.838 10.6286 19.9465 9.89731C20.0549 9.16603 20.0044 8.41997 19.7985 7.70996C19.5925 6.99996 19.2359 6.34271 18.7529 5.78301C18.2699 5.2233 17.672 4.7743 16.9997 4.46661C16.3275 4.15892 15.5969 3.99977 14.8576 4ZM14.8576 13.1429C14.4642 13.1426 14.0729 13.0844 13.6964 12.9702L13.0411 12.7714L12.5569 13.2555L10.7392 15.0734L9.9514 14.2857L9.14334 15.0938L9.93117 15.8815L9.02495 16.7878L8.23712 16L7.42906 16.8081L8.21689 17.5958L6.95569 18.8571H5.14335V17.0448L10.7447 11.4435L11.2288 10.9593L11.0303 10.304C10.7861 9.49885 10.8019 8.63718 11.0757 7.84157C11.3494 7.04595 11.867 6.35691 12.5549 5.87246C13.2428 5.388 14.066 5.1328 14.9073 5.14316C15.7486 5.15352 16.5653 5.42891 17.2411 5.93016C17.9168 6.43141 18.4173 7.13299 18.6714 7.9351C18.9254 8.73721 18.9201 9.59901 18.6561 10.3979C18.3921 11.1968 17.8829 11.8921 17.201 12.3849C16.519 12.8777 15.699 13.143 14.8576 13.1429Z" fill="#92939E"/>
<path d="M15.8575 9.42858C16.5676 9.42858 17.1432 8.85294 17.1432 8.14286C17.1432 7.43278 16.5676 6.85715 15.8575 6.85715C15.1474 6.85715 14.5718 7.43278 14.5718 8.14286C14.5718 8.85294 15.1474 9.42858 15.8575 9.42858Z" fill="#92939E"/>
</g>
<defs>
<clipPath id="clip0_3925_11041">
<rect width="24" height="24" fill="white"/>
</clipPath>
</defs>
</svg>
