<svg width="24" height="24" viewBox="0 0 24 24" fill="none" xmlns="http://www.w3.org/2000/svg">
<path d="M23.0007 12C22.9796 11.2437 22.749 10.5073 22.3334 9.87399C21.9189 9.24181 21.3359 8.73606 20.6499 8.41528C20.911 7.70466 20.966 6.9355 20.8138 6.19444C20.6604 5.45221 20.3022 4.76852 19.7812 4.21946C19.231 3.69849 18.5485 3.34142 17.8062 3.18689C17.0652 3.0347 16.296 3.08972 15.5854 3.35079C15.2658 2.66358 14.7612 2.0794 14.1279 1.66496C13.4945 1.25053 12.7581 1.01873 12.0007 1C11.2444 1.0199 10.5104 1.24936 9.87817 1.66496C9.24599 2.08057 8.74375 2.66475 8.42649 3.35079C7.7147 3.08972 6.9432 3.03235 6.1998 3.18689C5.4564 3.33908 4.77153 3.69732 4.2213 4.21946C3.70033 4.76969 3.34443 5.45455 3.19341 6.19561C3.04122 6.93667 3.09976 7.70583 3.362 8.41528C2.67479 8.73606 2.08943 9.24063 1.67266 9.87282C1.25589 10.505 1.02291 11.2425 1.00067 12C1.02409 12.7574 1.25589 13.4938 1.67266 14.1272C2.08943 14.7594 2.67479 15.2651 3.362 15.5847C3.09976 16.2942 3.04122 17.0633 3.19341 17.8044C3.34561 18.5466 3.70033 19.2303 4.22013 19.7805C4.77036 20.2992 5.45406 20.6551 6.19512 20.8084C6.93618 20.963 7.70533 20.9068 8.41595 20.6492C8.73673 21.3352 9.24131 21.9183 9.87466 22.3339C10.5068 22.7483 11.2444 22.9789 12.0007 23C12.7581 22.9813 13.4945 22.7506 14.1279 22.3362C14.7612 21.9218 15.2658 21.3364 15.5854 20.6504C16.2925 20.9302 17.0675 20.9969 17.8133 20.8424C18.5578 20.6878 19.2415 20.3191 19.78 19.7805C20.3186 19.242 20.6885 18.5583 20.8431 17.8126C20.9976 17.0668 20.9309 16.2918 20.6499 15.5847C21.3359 15.2639 21.9189 14.7594 22.3345 14.126C22.749 13.4938 22.9796 12.7563 23.0007 12Z" fill="#0A0A0C"/>
<path d="M15.2407 16H8.76066V15.196C8.76066 13.372 9.43266 12.46 11.0887 11.848L12.2527 11.428C13.0927 11.116 13.4047 10.66 13.4047 10C13.4047 9.256 12.8647 8.812 12.1087 8.812C11.2327 8.812 10.7767 9.292 10.6567 10.36H8.95266C8.95266 8.452 10.0207 7.336 12.0967 7.336C14.1127 7.336 15.2407 8.452 15.2407 10.048C15.2407 11.296 14.4967 12.148 13.0927 12.652L11.8327 13.108C11.0527 13.396 10.6447 13.84 10.5967 14.524H15.2407V16Z" fill="white"/>
</svg>
