<svg width="54" height="20" viewBox="0 0 54 20" fill="none" xmlns="http://www.w3.org/2000/svg">
<path d="M37.7049 3.33761C38.224 3.33761 38.6506 3.17095 38.9839 2.8369C39.3179 2.50284 39.4846 2.07701 39.4846 1.59465C39.4846 1.13138 39.3179 0.760618 38.9655 0.444918C38.6315 0.148306 38.2056 0 37.7049 0C37.2042 0 36.7967 0.166657 36.4443 0.482357C36.0919 0.797324 35.9253 1.18718 35.9253 1.66881C35.9253 2.13208 36.0919 2.54029 36.4443 2.85525C36.7784 3.17022 37.2042 3.33761 37.7049 3.33761Z" fill="#0092FF"/>
<path d="M9.93721 4.6009L9.95556 6.15884C9.72356 5.87985 9.46879 5.63537 9.18613 5.42392C8.90347 5.21321 8.59364 5.03774 8.25004 4.89824C7.56431 4.62072 6.82205 4.47168 6.00637 4.47168C5.42269 4.47168 4.87572 4.53702 4.36178 4.66404C3.84712 4.79105 3.36476 4.98121 2.9103 5.23157C2.00284 5.73228 1.29729 6.43637 0.778949 7.36291C0.259144 8.28946 -2.28882e-05 9.34669 -2.28882e-05 10.5515C-2.28882e-05 11.1631 0.0653171 11.7328 0.194534 12.2665C0.32522 12.8003 0.519781 13.2959 0.778949 13.7592C1.27967 14.6681 2.00284 15.3913 2.9103 15.8912C3.81922 16.3919 4.85736 16.6511 6.00637 16.6511C6.80369 16.6511 7.52173 16.5168 8.1568 16.248C8.79187 15.9793 9.34325 15.5763 9.80652 15.0381V20.0005H12.5876V4.60016H9.93647L9.93721 4.6009ZM9.6127 12.0558C9.44604 12.503 9.19567 12.8972 8.86235 13.2401C8.19424 13.9067 7.34185 14.2591 6.32207 14.2591C5.30228 14.2591 4.44989 13.9258 3.80086 13.2401C3.13422 12.5544 2.80017 11.6645 2.80017 10.5515C2.80017 9.99571 2.88313 9.49426 3.05126 9.04787C3.21792 8.60075 3.46754 8.20649 3.8016 7.86363C4.45062 7.19699 5.30375 6.84457 6.3228 6.84457C6.83306 6.84457 7.30074 6.92754 7.7251 7.09714C8.14946 7.266 8.52977 7.52003 8.86382 7.86363C9.53047 8.54936 9.86452 9.43919 9.86452 10.5515C9.86452 11.108 9.78156 11.6087 9.61343 12.0558H9.6127Z" fill="#0092FF"/>
<path d="M50.9152 16.4142L50.9335 14.8563C50.7015 15.1353 50.4467 15.3798 50.1641 15.5912C49.8814 15.8019 49.5716 15.9774 49.228 16.1169C48.5423 16.3944 47.8 16.5435 46.9843 16.5435C46.4006 16.5435 45.8537 16.4781 45.3397 16.3511C44.8251 16.2241 44.3427 16.0339 43.8882 15.7836C42.9808 15.2829 42.2752 14.5788 41.7569 13.6522C41.2371 12.7257 40.9779 11.6684 40.9779 10.4636C40.9779 9.85207 41.0433 9.28234 41.1725 8.74858C41.3032 8.21483 41.4977 7.71925 41.7569 7.25598C42.2576 6.34705 42.9808 5.62388 43.8882 5.1239C44.7972 4.62318 45.8353 4.36401 46.9843 4.36401C47.7816 4.36401 48.4997 4.49837 49.1347 4.76709C49.7698 5.0358 50.3212 5.43887 50.7845 5.97703V1.01465H53.5656V16.415H50.9144L50.9152 16.4142ZM50.5906 8.9593C50.424 8.51218 50.1736 8.11792 49.8403 7.77505C49.1722 7.10841 48.3198 6.756 47.3 6.756C46.2802 6.756 45.4278 7.08932 44.7788 7.77505C44.1122 8.46078 43.7781 9.35062 43.7781 10.4636C43.7781 11.0194 43.8611 11.5209 44.0292 11.9673C44.1959 12.4144 44.4455 12.8086 44.7796 13.1515C45.4286 13.8181 46.2817 14.1706 47.3007 14.1706C47.811 14.1706 48.2787 14.0876 48.7031 13.918C49.1274 13.7491 49.5077 13.4951 49.8418 13.1515C50.5084 12.4658 50.8425 11.5759 50.8425 10.4636C50.8425 9.90713 50.7595 9.40642 50.5914 8.9593H50.5906Z" fill="#0092FF"/>
<path d="M30.8579 4.60059L30.8212 10.941C30.8212 12.0533 30.6171 12.8874 30.228 13.4255C29.8388 13.9446 29.2082 14.2228 28.3558 14.2228C27.5027 14.2228 26.8544 13.9446 26.4462 13.4072C26.0196 12.8697 25.8155 12.035 25.8155 10.9227V4.60132H23.0344V10.9043C23.0344 12.0166 22.8119 12.8507 22.4037 13.3888C21.9955 13.9262 21.3472 14.2045 20.4941 14.2045C19.641 14.2045 19.011 13.9262 18.6219 13.4072C18.2328 12.8881 18.0287 12.0541 18.0287 10.9227V4.60132H15.2476V11.1451C15.2476 12.8881 15.7109 14.2228 16.6007 15.1868C17.5089 16.1325 18.8069 16.6141 20.4941 16.6141C21.4214 16.6141 22.1996 16.4841 22.8486 16.1692C23.4977 15.8726 24.0351 15.4093 24.4433 14.7786C25.259 16.0209 26.557 16.6324 28.3918 16.6324C30.0789 16.6324 31.3762 16.1692 32.2851 15.2052C33.1933 14.2412 33.6383 12.9065 33.6383 11.1635V4.60059H30.8572H30.8579Z" fill="#0092FF"/>
<path d="M36.296 16.5025L39.0771 16.4842V4.60059H36.296V16.5025Z" fill="#0092FF"/>
</svg>
