<svg width="24" height="24" viewBox="0 0 24 24" fill="none" xmlns="http://www.w3.org/2000/svg">
<path d="M23.0005 12C22.9794 11.2437 22.7488 10.5073 22.3332 9.87399C21.9187 9.24181 21.3357 8.73606 20.6497 8.41528C20.9108 7.70466 20.9658 6.9355 20.8136 6.19444C20.6602 5.45221 20.302 4.76852 19.781 4.21946C19.2308 3.69849 18.5483 3.34142 17.806 3.18689C17.065 3.0347 16.2958 3.08972 15.5852 3.35079C15.2656 2.66358 14.761 2.0794 14.1277 1.66496C13.4943 1.25053 12.7579 1.01873 12.0005 1C11.2442 1.0199 10.5102 1.24936 9.87799 1.66496C9.24581 2.08057 8.74357 2.66475 8.42631 3.35079C7.71452 3.08972 6.94302 3.03235 6.19962 3.18689C5.45621 3.33908 4.77135 3.69732 4.22111 4.21946C3.70015 4.76969 3.34425 5.45456 3.19323 6.19561C3.04104 6.93667 3.09957 7.70583 3.36181 8.41528C2.67461 8.73606 2.08925 9.24063 1.67248 9.87282C1.2557 10.505 1.02273 11.2425 1.00049 12C1.0239 12.7575 1.2557 13.4938 1.67248 14.1272C2.08925 14.7594 2.67461 15.2651 3.36181 15.5847C3.09957 16.2942 3.04104 17.0633 3.19323 17.8044C3.34542 18.5466 3.70015 19.2303 4.21994 19.7805C4.77018 20.2992 5.45387 20.6551 6.19493 20.8084C6.93599 20.963 7.70515 20.9068 8.41577 20.6492C8.73655 21.3352 9.24112 21.9183 9.87448 22.3339C10.5067 22.7483 11.2442 22.9789 12.0005 23C12.7579 22.9813 13.4943 22.7506 14.1277 22.3362C14.761 21.9218 15.2656 21.3364 15.5852 20.6504C16.2923 20.9302 17.0673 20.9969 17.8131 20.8424C18.5576 20.6878 19.2413 20.3191 19.7799 19.7805C20.3184 19.242 20.6883 18.5583 20.8429 17.8126C20.9974 17.0668 20.9307 16.2918 20.6497 15.5847C21.3357 15.2639 21.9188 14.7594 22.3344 14.126C22.7488 13.4938 22.9794 12.7563 23.0005 12Z" fill="#0092FF"/>
<path d="M10.7151 15.6244L7.50195 12.4113L8.52437 11.3889L10.7151 13.5796L15.477 8.81836L16.502 9.83692L10.7151 15.6244Z" fill="white" stroke="white" stroke-width="0.3"/>
</svg>
