<svg width="25" height="24" viewBox="0 0 25 24" fill="none" xmlns="http://www.w3.org/2000/svg">
<g clip-path="url(#clip0_3925_11421)">
<path d="M21.9105 9.89041C20.8258 9.36192 19.3678 8.98169 17.7627 8.80291V8.16279C17.7627 7.10581 16.8291 6.14826 15.1314 5.46541C13.5876 4.84273 11.5449 4.5 9.38136 4.5C7.2178 4.5 5.17508 4.84273 3.63136 5.46541C1.93364 6.14826 1 7.10581 1 8.16279V11.6512C1 12.7081 1.93364 13.6657 3.63136 14.3485C4.65369 14.7602 5.89335 15.0462 7.23729 15.1971V15.8372C7.23729 16.8942 8.17093 17.8517 9.86864 18.5346C11.4124 19.1573 13.4551 19.5 15.6186 19.5C17.7822 19.5 19.8249 19.1573 21.3686 18.5346C23.0634 17.8517 24 16.8942 24 15.8372V12.3488C24 11.4201 23.2583 10.5471 21.9105 9.89041ZM21.3511 10.8096C22.3052 11.2744 22.8305 11.8256 22.8305 12.3488C22.8305 13.5863 19.8688 14.9651 15.6186 14.9651C14.9275 14.9655 14.2371 14.9264 13.5516 14.8483C14.0918 14.7185 14.62 14.5514 15.1314 14.3485C16.8261 13.6657 17.7627 12.7081 17.7627 11.6512V9.85727C19.1661 10.0256 20.4233 10.357 21.3511 10.8096ZM10.5664 14.2308C10.1844 14.2544 9.78678 14.2674 9.38136 14.2674C8.86483 14.2674 8.3678 14.2465 7.8922 14.209C7.88021 14.208 7.86814 14.208 7.85614 14.209C7.50725 14.1802 7.17394 14.1419 6.84746 14.0956V11.6616C7.68648 11.7716 8.53338 11.8264 9.38136 11.8256C10.2293 11.8264 11.0762 11.7716 11.9153 11.6616V14.093C11.4923 14.1532 11.0469 14.1994 10.5811 14.2291L10.5664 14.2308ZM16.5932 10.0718V11.6512C16.5932 12.4831 15.2532 13.3779 13.0847 13.8759V11.4637C13.787 11.3218 14.4724 11.1197 15.1314 10.8602C15.6555 10.6565 16.1471 10.3914 16.5932 10.0718ZM9.38136 5.54651C13.6315 5.54651 16.5932 6.92529 16.5932 8.16279C16.5932 9.40029 13.6315 10.7791 9.38136 10.7791C5.13123 10.7791 2.16949 9.40029 2.16949 8.16279C2.16949 6.92529 5.13123 5.54651 9.38136 5.54651ZM2.16949 11.6512V10.0718C2.61584 10.3901 3.10741 10.6541 3.63136 10.8567C4.29031 11.1162 4.97568 11.3183 5.67797 11.4602V13.8724C3.50953 13.3779 2.16949 12.4831 2.16949 11.6512ZM8.40678 15.8372V15.2895C8.72839 15.3052 9.05292 15.314 9.38136 15.314C9.76534 15.314 10.1441 15.3032 10.5177 15.2817C10.9748 15.4293 11.4415 15.5519 11.9153 15.6488V18.0619C9.74682 17.564 8.40678 16.6692 8.40678 15.8372ZM13.0847 18.2791V15.8459C13.9237 15.9565 14.7706 16.0119 15.6186 16.0116C16.4666 16.0125 17.3135 15.9577 18.1525 15.8477V18.2791C16.4733 18.5116 14.764 18.5116 13.0847 18.2791ZM19.322 18.0619V15.6497C20.0243 15.5078 20.7097 15.3057 21.3686 15.0462C21.8926 14.8436 22.3842 14.5797 22.8305 14.2613V15.8372C22.8305 16.6692 21.4905 17.564 19.322 18.0619Z" fill="#92939E" stroke="#92939E" stroke-width="0.05"/>
</g>
<defs>
<clipPath id="clip0_3925_11421">
<rect width="24" height="24" fill="white" transform="translate(0.5)"/>
</clipPath>
</defs>
</svg>
