<svg width="25" height="24" viewBox="0 0 25 24" fill="none" xmlns="http://www.w3.org/2000/svg">
<path d="M16.3566 14.5714H8.6423C7.61932 14.5714 6.63824 14.9778 5.91489 15.7012C5.19153 16.4245 4.78516 17.4056 4.78516 18.4286V21H7.35658V18.4286C7.35658 18.0876 7.49204 17.7606 7.73316 17.5194C7.97428 17.2783 8.30131 17.1429 8.6423 17.1429H16.3566C16.6976 17.1429 17.0246 17.2783 17.2657 17.5194C17.5068 17.7606 17.6423 18.0876 17.6423 18.4286V21H20.2137V18.4286C20.2137 17.4056 19.8074 16.4245 19.084 15.7012C18.3606 14.9778 17.3796 14.5714 16.3566 14.5714Z" fill="#92939E" stroke="white"/>
<path d="M12.4993 13.2857C13.5165 13.2857 14.5108 12.9841 15.3565 12.419C16.2023 11.8539 16.8614 11.0507 17.2507 10.1109C17.6399 9.17121 17.7418 8.13715 17.5433 7.13954C17.3449 6.14192 16.8551 5.22555 16.1359 4.50631C15.4166 3.78707 14.5002 3.29726 13.5026 3.09882C12.505 2.90038 11.471 3.00223 10.5312 3.39148C9.59148 3.78073 8.78828 4.4399 8.22317 5.28564C7.65807 6.13138 7.35645 7.1257 7.35645 8.14286C7.35645 9.50683 7.89828 10.8149 8.86275 11.7794C9.82723 12.7439 11.1353 13.2857 12.4993 13.2857ZM12.4993 5.57143C13.0079 5.57143 13.505 5.72224 13.9279 6.00479C14.3508 6.28735 14.6804 6.68895 14.875 7.15882C15.0696 7.62868 15.1205 8.14571 15.0213 8.64452C14.9221 9.14333 14.6772 9.60151 14.3176 9.96113C13.958 10.3208 13.4998 10.5657 13.001 10.6649C12.5022 10.7641 11.9851 10.7132 11.5153 10.5185C11.0454 10.3239 10.6438 9.99434 10.3612 9.57147C10.0787 9.1486 9.92787 8.65144 9.92787 8.14286C9.92787 7.46087 10.1988 6.80682 10.681 6.32458C11.1633 5.84235 11.8173 5.57143 12.4993 5.57143Z" fill="#92939E" stroke="white"/>
</svg>
