<svg width="24" height="24" viewBox="0 0 24 24" fill="none" xmlns="http://www.w3.org/2000/svg">
<path d="M12 2.75C14.4533 2.75 16.8063 3.72427 18.541 5.45898C20.2757 7.1937 21.25 9.54675 21.25 12C21.25 13.8293 20.7076 15.6176 19.6914 17.1387C18.675 18.6598 17.2302 19.8458 15.54 20.5459C13.8498 21.246 11.9896 21.4292 10.1953 21.0723C8.40103 20.7153 6.7526 19.8346 5.45898 18.541C4.16537 17.2474 3.28466 15.599 2.92773 13.8047C2.57082 12.0104 2.75399 10.1502 3.4541 8.45996C4.15422 6.76982 5.34023 5.32496 6.86133 4.30859C8.3824 3.29236 10.1707 2.75 12 2.75Z" fill="white" stroke="#94A3B8" stroke-width="1.5"/>
<path d="M12.5625 11.4375V7.5H11.4375V11.4375H7.5V12.5625H11.4375V16.5H12.5625V12.5625H16.5V11.4375H12.5625Z" fill="#94A3B8" stroke="#94A3B8" stroke-width="0.15"/>
</svg>
