<svg width="24" height="24" viewBox="0 0 24 24" fill="none" xmlns="http://www.w3.org/2000/svg">
<g clip-path="url(#clip0_3925_6778)">
<path d="M12 2.51685L4.88477 6.06137V14.4016C4.88477 16.2887 5.63441 18.0985 6.96878 19.4328C8.30315 20.7672 10.1129 21.5168 12 21.5168C13.8871 21.5168 15.6969 20.7672 17.0313 19.4328C18.3656 18.0985 19.1153 16.2887 19.1153 14.4016V6.06137L12 2.51685ZM16.0498 18.7122L12 16.6948V18.016L14.9861 19.5035C14.0865 20.0274 13.0649 20.3053 12.0239 20.3092C10.9829 20.3132 9.95924 20.043 9.05572 19.526C8.1522 19.0089 7.40068 18.2632 6.8767 17.3637C6.35271 16.4642 6.07471 15.4426 6.07064 14.4016V6.79164L12 3.83785L17.9294 6.79164V9.01515L12 6.06131V7.38232L17.9294 10.3361V12.5596L12 9.60584V10.9268L17.9294 13.8806V14.4016C17.9297 14.9402 17.8559 15.4763 17.71 15.9949L12 13.1503V14.4713L17.2743 17.0988C16.9615 17.7027 16.5473 18.2484 16.0498 18.7122Z" fill="#92939E"/>
</g>
<defs>
<clipPath id="clip0_3925_6778">
<rect width="24" height="24" fill="white"/>
</clipPath>
</defs>
</svg>
