<svg width="24" height="24" viewBox="0 0 24 24" fill="none" xmlns="http://www.w3.org/2000/svg">
<g clip-path="url(#clip0_3925_6741)">
<path d="M12 2.5C10.1211 2.5 8.28435 3.05717 6.72209 4.10104C5.15982 5.14491 3.94218 6.62861 3.22315 8.36451C2.50412 10.1004 2.31598 12.0105 2.68254 13.8534C3.0491 15.6962 3.95389 17.3889 5.28249 18.7175C6.61109 20.0461 8.30383 20.9509 10.1466 21.3175C11.9895 21.684 13.8996 21.4959 15.6355 20.7769C17.3714 20.0578 18.8551 18.8402 19.899 17.2779C20.9428 15.7156 21.5 13.8789 21.5 12C21.5 9.48044 20.4991 7.06408 18.7175 5.28248C16.9359 3.50089 14.5196 2.5 12 2.5ZM20.1429 11.3214H16.0714C15.9922 8.82231 15.3448 6.37407 14.1782 4.1625C15.7855 4.60214 17.2191 5.52429 18.2857 6.80446C19.3524 8.08464 20.0006 9.66123 20.1429 11.3214ZM12 20.1429C11.8486 20.153 11.6967 20.153 11.5454 20.1429C10.1396 17.901 9.35935 15.3237 9.28572 12.6786H14.7143C14.6468 15.3218 13.8736 17.8989 12.475 20.1429C12.3169 20.1539 12.1581 20.1539 12 20.1429ZM9.28572 11.3214C9.35323 8.67817 10.1264 6.10106 11.525 3.85714C11.8271 3.82319 12.1321 3.82319 12.4343 3.85714C13.8473 6.09697 14.6345 8.67436 14.7143 11.3214H9.28572ZM9.80143 4.1625C8.64195 6.37576 8.00149 8.82391 7.92857 11.3214H3.85715C3.99944 9.66123 4.64764 8.08464 5.71425 6.80446C6.78087 5.52429 8.21455 4.60214 9.82179 4.1625H9.80143ZM3.89108 12.6786H7.9625C8.03332 15.1756 8.67145 17.6237 9.82857 19.8375C8.22637 19.3931 6.7986 18.4689 5.73717 17.1891C4.67573 15.9094 4.0315 14.3353 3.89108 12.6786ZM14.1782 19.8375C15.3448 17.6259 15.9922 15.1777 16.0714 12.6786H20.1429C20.0006 14.3388 19.3524 15.9154 18.2857 17.1955C17.2191 18.4757 15.7855 19.3979 14.1782 19.8375Z" fill="#92939E"/>
</g>
<defs>
<clipPath id="clip0_3925_6741">
<rect width="24" height="24" fill="white"/>
</clipPath>
</defs>
</svg>
