<svg width="18" height="18" viewBox="0 0 18 18" fill="none" xmlns="http://www.w3.org/2000/svg">
<path d="M9.00098 0.25C7.27039 0.25 5.57867 0.763179 4.13974 1.72464C2.70081 2.6861 1.5793 4.05267 0.917034 5.65152C0.254768 7.25037 0.0814887 9.0097 0.419109 10.707C0.75673 12.4044 1.59009 13.9635 2.8138 15.1872C4.0375 16.4109 5.59661 17.2442 7.29394 17.5819C8.99127 17.9195 10.7506 17.7462 12.3495 17.0839C13.9483 16.4217 15.3149 15.3002 16.2763 13.8612C17.2378 12.4223 17.751 10.7306 17.751 9C17.751 6.67935 16.8291 4.45376 15.1882 2.81281C13.5472 1.17187 11.3216 0.25 9.00098 0.25Z" fill="#FFBF00"/>
<path d="M9.00098 3C7.81429 3 6.65425 3.35189 5.66756 4.01118C4.68086 4.67047 3.91183 5.60754 3.4577 6.7039C3.00358 7.80026 2.88476 9.00665 3.11627 10.1705C3.34778 11.3344 3.91922 12.4035 4.75834 13.2426C5.59745 14.0818 6.66655 14.6532 7.83044 14.8847C8.99432 15.1162 10.2007 14.9974 11.2971 14.5433C12.3934 14.0891 13.3305 13.3201 13.9898 12.3334C14.6491 11.3467 15.001 10.1867 15.001 9C15.001 7.4087 14.3688 5.88258 13.2436 4.75736C12.1184 3.63214 10.5923 3 9.00098 3Z" fill="#161616"/>
<path d="M17.5102 8.88543L13.6596 2.29424C13.6076 2.20476 13.533 2.1305 13.4434 2.07886C13.3537 2.02722 13.252 2.00003 13.1485 2H5.44509C5.3417 2.00013 5.24015 2.02737 5.15057 2.079C5.06099 2.13063 4.98652 2.20485 4.93458 2.29424L1.08341 8.88598C1.02943 8.97847 1.00098 9.08364 1.00098 9.19073C1.00098 9.29782 1.02943 9.40299 1.08341 9.49548L4.93514 16.0867C4.98707 16.1761 5.06155 16.2503 5.15112 16.3019C5.2407 16.3535 5.34225 16.3808 5.44564 16.3809H13.1491C13.2525 16.3808 13.354 16.3535 13.4436 16.3019C13.5332 16.2503 13.6077 16.1761 13.6596 16.0867L17.5102 9.49438C17.5642 9.40189 17.5926 9.18962 17.5926 9.18962C17.5926 9.18962 17.5642 8.97791 17.5102 8.88543ZM8.67514 4.76545H9.91959V10.8494H8.67514V4.76545ZM9.29681 14.168C9.13272 14.168 8.97232 14.1193 8.83589 14.0282C8.69946 13.937 8.59312 13.8074 8.53033 13.6558C8.46753 13.5042 8.4511 13.3374 8.48312 13.1765C8.51513 13.0156 8.59414 12.8677 8.71017 12.7517C8.8262 12.6357 8.97402 12.5567 9.13496 12.5247C9.29589 12.4927 9.4627 12.5091 9.6143 12.5719C9.76589 12.6347 9.89547 12.741 9.98663 12.8774C10.0778 13.0139 10.1264 13.1743 10.1264 13.3384C10.1264 13.5584 10.039 13.7694 9.88345 13.925C9.72786 14.0806 9.51684 14.168 9.29681 14.168Z" fill="#F1F2F3"/>
<path d="M17.5102 8.88543L13.6596 2.29424C13.6076 2.20476 13.533 2.1305 13.4434 2.07886C13.3537 2.02722 13.252 2.00003 13.1485 2H5.44509C5.3417 2.00013 5.24015 2.02737 5.15057 2.079C5.06099 2.13063 4.98652 2.20485 4.93458 2.29424L1.08341 8.88598C1.02943 8.97847 1.00098 9.08364 1.00098 9.19073C1.00098 9.29782 1.02943 9.40299 1.08341 9.49548L4.93514 16.0867C4.98707 16.1761 5.06155 16.2503 5.15112 16.3019C5.2407 16.3535 5.34225 16.3808 5.44564 16.3809H13.1491C13.2525 16.3808 13.354 16.3535 13.4436 16.3019C13.5332 16.2503 13.6077 16.1761 13.6596 16.0867L17.5102 9.49438C17.5642 9.40189 17.5926 9.18962 17.5926 9.18962C17.5926 9.18962 17.5642 8.97791 17.5102 8.88543ZM8.67514 4.76545H9.91959V10.8494H8.67514V4.76545ZM9.29681 14.168C9.13272 14.168 8.97232 14.1193 8.83589 14.0282C8.69946 13.937 8.59312 13.8074 8.53033 13.6558C8.46753 13.5042 8.4511 13.3374 8.48312 13.1765C8.51513 13.0156 8.59414 12.8677 8.71017 12.7517C8.8262 12.6357 8.97402 12.5567 9.13496 12.5247C9.29589 12.4927 9.4627 12.5091 9.6143 12.5719C9.76589 12.6347 9.89547 12.741 9.98663 12.8774C10.0778 13.0139 10.1264 13.1743 10.1264 13.3384C10.1264 13.5584 10.039 13.7694 9.88345 13.925C9.72786 14.0806 9.51684 14.168 9.29681 14.168Z" fill="#FFBF00"/>
</svg>
