<svg width="24" height="24" viewBox="0 0 24 24" fill="none" xmlns="http://www.w3.org/2000/svg">
<path d="M19.5191 12.8238V10.8621H18.0149V13.1379C18.0149 13.3391 18.0942 13.532 18.2353 13.6743L20.2713 15.7279V16.931H3.72427V15.7279L5.76031 13.6743C5.90137 13.532 5.98064 13.3391 5.98069 13.1379V10.1034C5.97875 9.0375 6.25571 7.9899 6.7836 7.06645C7.31148 6.143 8.07161 5.37639 8.98721 4.84403C9.90282 4.31167 10.9415 4.03242 11.9983 4.03446C13.0552 4.03651 14.0928 4.31979 15.0063 4.85569V3.15957C14.2904 2.83985 13.5289 2.63608 12.7499 2.55578V1H11.2456V2.55578C9.39138 2.74607 7.67294 3.62306 6.42259 5.01719C5.17225 6.41132 4.47883 8.22355 4.47641 10.1034V12.8238L2.44038 14.8774C2.29931 15.0197 2.22004 15.2126 2.22 15.4138V17.6897C2.22 17.8909 2.29924 18.0838 2.4403 18.2261C2.58135 18.3684 2.77266 18.4483 2.97214 18.4483H8.2371V19.2069C8.2371 20.2129 8.63331 21.1777 9.33857 21.889C10.0438 22.6004 11.0004 23 11.9978 23C12.9952 23 13.9517 22.6004 14.657 21.889C15.3623 21.1777 15.7585 20.2129 15.7585 19.2069V18.4483H21.0234C21.2229 18.4483 21.4142 18.3684 21.5553 18.2261C21.6963 18.0838 21.7756 17.8909 21.7756 17.6897V15.4138C21.7755 15.2126 21.6962 15.0197 21.5552 14.8774L19.5191 12.8238ZM14.2542 19.2069C14.2542 19.8105 14.0165 20.3894 13.5933 20.8162C13.1701 21.243 12.5962 21.4828 11.9978 21.4828C11.3993 21.4828 10.8254 21.243 10.4023 20.8162C9.9791 20.3894 9.74137 19.8105 9.74137 19.2069V18.4483H14.2542V19.2069Z" fill="#0A0A0C"/>
<path d="M18.5 9C19.8807 9 21 7.88071 21 6.5C21 5.11929 19.8807 4 18.5 4C17.1193 4 16 5.11929 16 6.5C16 7.88071 17.1193 9 18.5 9Z" fill="#0092FF"/>
</svg>
