<svg width="24" height="24" viewBox="0 0 24 24" fill="none" xmlns="http://www.w3.org/2000/svg">
<path d="M20.4005 19.2H3.6001V20.4H20.4005V19.2Z" fill="#92939E"/>
<path d="M18.6004 8.99999C18.7595 8.99999 19 9 19.2004 9C19.2004 9 19.2004 8.55911 19.2004 8.39998V6.59993C19.2004 6.47662 19.1623 6.35632 19.0914 6.2554C19.0206 6.15448 18.9203 6.07783 18.8044 6.03591L12.2043 3.63585C12.0724 3.58818 11.928 3.58818 11.7962 3.63585L5.19603 6.03591C5.08006 6.07783 4.97983 6.15448 4.90898 6.2554C4.83812 6.35632 4.80007 6.47662 4.80002 6.59993V8.39998C4.80002 8.55911 4.80002 8.76562 4.7998 8.99999C5 9 5.2409 8.99999 5.40003 8.99999H6.00006V16.8002H4.80002V18.0002H19.2004V16.8002H18.0004V8.99999H18.6004ZM6.00006 7.01994L12.0003 4.83588L18.0004 7.01994V7.79995H6.00006V7.01994ZM13.2003 16.8002H10.8002V8.99999H13.2003V16.8002ZM7.20008 8.99999H9.60014V16.8002H7.20008V8.99999ZM16.8004 16.8002H14.4003V8.99999H16.8004V16.8002Z" fill="#92939E"/>
</svg>
