<svg width="24" height="24" viewBox="0 0 24 24" fill="none" xmlns="http://www.w3.org/2000/svg">
<path d="M19.7143 6.07064V17.9277H4.28577V6.07064H19.7143ZM19.7143 4.78493H4.28577C3.94477 4.78493 3.42857 4.78491 3 4.78495C3 5.21349 3.00006 5.72965 3.00006 6.07064V17.9277C3.00006 18.2687 3.00001 18.7849 3.00001 19.2134C3.42858 19.2134 3.94477 19.2135 4.28577 19.2135H19.7143C20.0553 19.2135 20.5714 19.2134 21 19.2135C21 18.7849 21 18.2687 21 17.9277V6.07064C21 5.72965 21 5.21348 21 4.78491C20.5714 4.78491 20.0553 4.78493 19.7143 4.78493Z" fill="#92939E"/>
<path d="M13.9356 14.7351H10.0785C9.56698 14.7351 9.07644 14.9383 8.71477 15.3C8.35309 15.6616 8.1499 16.1522 8.1499 16.6637V17.9494H9.43561V16.6637C9.43561 16.4932 9.50334 16.3297 9.6239 16.2091C9.74446 16.0885 9.90797 16.0208 10.0785 16.0208H13.9356C14.1061 16.0208 14.2696 16.0885 14.3902 16.2091C14.5107 16.3297 14.5785 16.4932 14.5785 16.6637V17.9494H15.8642V16.6637C15.8642 16.1522 15.661 15.6616 15.2993 15.3C14.9376 14.9383 14.4471 14.7351 13.9356 14.7351Z" fill="#92939E"/>
<path d="M12.007 14.0923C12.5155 14.0923 13.0127 13.9415 13.4356 13.6589C13.8584 13.3764 14.188 12.9748 14.3827 12.5049C14.5773 12.0351 14.6282 11.518 14.529 11.0192C14.4298 10.5204 14.1849 10.0622 13.8252 9.70262C13.4656 9.343 13.0074 9.09809 12.5086 8.99887C12.0098 8.89965 11.4928 8.95058 11.0229 9.1452C10.5531 9.33983 10.1515 9.66941 9.86891 10.0923C9.58636 10.5151 9.43555 11.0123 9.43555 11.5209C9.43555 12.2029 9.70646 12.8569 10.1887 13.3392C10.6709 13.8214 11.325 14.0923 12.007 14.0923ZM12.007 10.2352C12.2613 10.2352 12.5098 10.3106 12.7213 10.4519C12.9327 10.5931 13.0975 10.7939 13.1948 11.0289C13.2921 11.2638 13.3176 11.5223 13.268 11.7717C13.2184 12.0211 13.0959 12.2502 12.9161 12.43C12.7363 12.6098 12.5072 12.7323 12.2578 12.7819C12.0084 12.8315 11.7499 12.806 11.5149 12.7087C11.28 12.6114 11.0792 12.4466 10.9379 12.2352C10.7967 12.0238 10.7213 11.7752 10.7213 11.5209C10.7213 11.1799 10.8567 10.8529 11.0978 10.6118C11.339 10.3706 11.666 10.2352 12.007 10.2352Z" fill="#92939E"/>
</svg>
