<svg width="18" height="18" viewBox="0 0 18 18" fill="none" xmlns="http://www.w3.org/2000/svg">
<path fill-rule="evenodd" clip-rule="evenodd" d="M8.31247 13.6247C11.2465 13.6247 13.6249 11.2462 13.6249 8.31223C13.6249 5.37823 11.2465 2.99976 8.31247 2.99976C5.37848 2.99976 3 5.37823 3 8.31223C3 11.2462 5.37848 13.6247 8.31247 13.6247Z" stroke="#94A3B8" stroke-width="1.35" stroke-linecap="round" stroke-linejoin="round"/>
<path fill-rule="evenodd" clip-rule="evenodd" d="M8.31247 13.6247C11.2465 13.6247 13.6249 11.2462 13.6249 8.31223C13.6249 5.37823 11.2465 2.99976 8.31247 2.99976C5.37848 2.99976 3 5.37823 3 8.31223C3 11.2462 5.37848 13.6247 8.31247 13.6247Z" stroke="#8F8FA3" stroke-width="1.35" stroke-linecap="round" stroke-linejoin="round"/>
<path fill-rule="evenodd" clip-rule="evenodd" d="M14.9997 14.9997L12.0664 12.0664L14.9997 14.9997Z" fill="#8F8FA3"/>
<path d="M14.9997 14.9997L12.0664 12.0664" stroke="#8F8FA3" stroke-width="1.35" stroke-linecap="square" stroke-linejoin="round"/>
</svg>
