<svg width="24" height="24" viewBox="0 0 24 24" fill="none" xmlns="http://www.w3.org/2000/svg">
<g clip-path="url(#clip0_2422_41742)">
<path d="M17.1427 10.7143H15.857V6.85714C15.857 5.83417 15.4506 4.85309 14.7273 4.12973C14.0039 3.40638 13.0229 3 11.9999 3C10.9769 3 9.99582 3.40638 9.27246 4.12973C8.54911 4.85309 8.14273 5.83417 8.14273 6.85714V10.7143H6.85702C6.51602 10.7143 5.99989 10.7143 5.5713 10.7143C5.57132 11 5.5713 11.659 5.5713 12V19.7143C5.5713 20.0553 5.57125 20.3047 5.57135 21C5.99994 21 6.51602 21 6.85702 21H17.1427C17.4837 21 17.9999 21 18.4284 21C18.4284 20.4784 18.4284 20.0553 18.4284 19.7143V12C18.4284 11.659 18.4284 10.9727 18.4284 10.7143C17.953 10.7143 17.4837 10.7143 17.1427 10.7143ZM9.42844 6.85714C9.42844 6.17516 9.69936 5.5211 10.1816 5.03887C10.6638 4.55663 11.3179 4.28571 11.9999 4.28571C12.6819 4.28571 13.3359 4.55663 13.8181 5.03887C14.3004 5.5211 14.5713 6.17516 14.5713 6.85714V10.7143H9.42844V6.85714ZM17.1427 19.7143H6.85702V12H17.1427V19.7143Z" fill="#92939E"/>
</g>
<defs>
<clipPath id="clip0_2422_41742">
<rect width="24" height="24" fill="white"/>
</clipPath>
</defs>
</svg>
