<svg xmlns="http://www.w3.org/2000/svg" xmlns:xlink="http://www.w3.org/1999/xlink" xmlns:inkscape="http://www.inkscape.org/namespaces/inkscape" version="1.1" width="24" height="24" viewBox="0 0 24 24">
<g>
<path d="M6.617 22C6.156 22 5.77 21.844 5.461 21.539 5.152 21.23 5 20.844 5 20.383V10.617C5 10.156 5.152 9.77 5.461 9.461 5.77 9.152 6.156 9 6.617 9H8.73V10H6.617C6.461 10 6.32 10.062 6.191 10.191 6.062 10.32 6 10.461 6 10.617V20.383C6 20.539 6.062 20.68 6.191 20.809 6.32 20.938 6.461 21 6.617 21H17.383C17.539 21 17.68 20.938 17.809 20.809 17.938 20.68 18 20.539 18 20.383V10.617C18 10.461 17.938 10.32 17.809 10.191 17.68 10.062 17.539 10 17.383 10H15.27V9H17.383C17.844 9 18.23 9.152 18.539 9.461 18.848 9.77 19 10.156 19 10.617V20.383C19 20.844 18.848 21.23 18.539 21.539 18.23 21.844 17.844 22 17.383 22ZM11.5 15.5V4.613L9.398 6.715 8.691 6 12 2.691 15.309 6 14.602 6.715 12.5 4.613V15.5ZM11.5 15.5"/>
</g>
</svg>
