<svg width="24" height="24" viewBox="0 0 24 24" fill="none" xmlns="http://www.w3.org/2000/svg">
<path d="M19.4846 20.1538L13.2231 13.8923C12.7231 14.3179 12.1481 14.6474 11.4981 14.8807C10.8481 15.114 10.1949 15.2307 9.53845 15.2307C7.93679 15.2307 6.58124 14.6763 5.47183 13.5675C4.36239 12.4587 3.80768 11.1039 3.80768 9.50307C3.80768 7.90227 4.36209 6.54642 5.4709 5.43551C6.57972 4.32461 7.93453 3.76917 9.53533 3.76917C11.1361 3.76917 12.492 4.32387 13.6029 5.43329C14.7138 6.54271 15.2692 7.89826 15.2692 9.49994C15.2692 10.1948 15.1462 10.8672 14.9 11.5172C14.6539 12.1672 14.3308 12.723 13.9308 13.1846L20.1923 19.4461L19.4846 20.1538ZM9.53845 14.2307C10.8654 14.2307 11.9856 13.774 12.899 12.8605C13.8125 11.9471 14.2692 10.8269 14.2692 9.49994C14.2692 8.17302 13.8125 7.05283 12.899 6.13937C11.9856 5.2259 10.8654 4.76917 9.53845 4.76917C8.21154 4.76917 7.09134 5.2259 6.17788 6.13937C5.26443 7.05283 4.8077 8.17302 4.8077 9.49994C4.8077 10.8269 5.26443 11.9471 6.17788 12.8605C7.09134 13.774 8.21154 14.2307 9.53845 14.2307Z" fill="black"/>
</svg>
