<?xml version="1.0" encoding="UTF-8" standalone="no"?>
<!-- Created with Inkscape (http://www.inkscape.org/) -->

<svg
   version="1.1"
   id="svg2"
   width="1056"
   height="1056"
   viewBox="0 0 1056 1056"
   xmlns="http://www.w3.org/2000/svg"
   xmlns:svg="http://www.w3.org/2000/svg">
  <defs
     id="defs6" />
  <g
     id="g8"
     transform="matrix(1.3333333,0,0,1.3333333,0,2.64e-5)">
    <g
       id="g10">
      <path
         d="m 66,536.25 c -13.668,0 -24.75,11.082 -24.75,24.75 0,13.668 11.082,24.75 24.75,24.75 z m 288.676,-71.379 -21.219,-12.734 z m 82.648,-137.742 21.219,12.734 z M 726,231 l 17.5,17.5 c 9.664,-9.664 9.664,-25.336 0,-35 z m -83.5,48.5 c -9.664,9.664 -9.664,25.336 0,35 9.664,9.668 25.336,9.668 35,0 z m 35,-132 c -9.664,-9.668 -25.336,-9.668 -35,0 -9.664,9.664 -9.664,25.336 0,35 z m -175.223,96.352 -12.195,-21.54 z M 66,585.75 h 118.895 v -49.5 H 66 Z M 375.898,477.602 458.543,339.863 416.102,314.395 333.457,452.137 Z M 607.105,255.75 H 726 v -49.5 H 607.105 Z M 708.5,213.5 l -66,66 35,35 66,-66 z m 35,0 -66,-66 -35,35 66,66 z M 458.543,339.863 c 14.332,-23.883 24.199,-40.277 33.199,-52.433 8.684,-11.727 15.442,-17.918 22.727,-22.043 l -24.387,-43.075 c -15.41,8.727 -27.043,20.7 -38.121,35.661 -10.762,14.535 -22.02,33.351 -35.859,56.422 z M 607.105,206.25 c -26.902,0 -48.835,-0.027 -66.832,1.723 -18.531,1.8 -34.781,5.617 -50.191,14.339 l 24.387,43.075 c 7.289,-4.125 16.07,-6.735 30.593,-8.145 15.055,-1.465 34.192,-1.492 62.043,-1.492 z m -422.21,379.5 c 26.902,0 48.835,0.027 66.832,-1.723 18.531,-1.8 34.781,-5.617 50.191,-14.339 l -24.387,-43.079 c -7.289,4.129 -16.074,6.739 -30.593,8.149 -15.055,1.465 -34.192,1.492 -62.043,1.492 z M 333.457,452.137 c -14.332,23.883 -24.199,40.281 -33.199,52.433 -8.684,11.727 -15.442,17.914 -22.727,22.039 l 24.387,43.079 c 15.41,-8.723 27.043,-20.7 38.121,-35.661 10.762,-14.535 22.02,-33.355 35.859,-56.425 z"
         style="fill:#000000;fill-opacity:1;fill-rule:nonzero;stroke:none"
         id="path12" />
      <path
         d="m 66,206.25 c -13.668,0 -24.75,11.082 -24.75,24.75 0,13.668 11.082,24.75 24.75,24.75 z M 726,561 l 17.5,17.5 c 9.664,-9.664 9.664,-25.336 0,-35 z m -48.5,-83.5 c -9.664,-9.664 -25.336,-9.664 -35,0 -9.664,9.664 -9.664,25.336 0,35 z m -35,132 c -9.664,9.664 -9.664,25.336 0,35 9.664,9.664 25.336,9.664 35,0 z m -110.363,-50.324 4.73,-24.293 z m -55.516,-76.91 c -7.031,-11.723 -22.234,-15.52 -33.957,-8.489 -11.719,7.032 -15.519,22.235 -8.488,33.957 z m 0.836,45.949 18.398,-16.555 z M 259.863,232.824 264.59,208.531 Z m 55.516,76.91 c 7.031,11.719 22.234,15.52 33.957,8.489 11.719,-7.032 15.519,-22.235 8.488,-33.957 z m -0.836,-45.949 -18.398,16.555 z M 66,255.75 h 154.031 v -49.5 H 66 Z m 505.969,330 H 726 v -49.5 H 571.969 Z M 743.5,543.5 l -66,-66 -35,35 66,66 z m -35,0 -66,66 35,35 66,-66 z m -136.531,-7.25 c -21.309,0 -28.629,-0.109 -35.102,-1.367 l -9.457,48.586 c 12.266,2.39 25.25,2.281 44.559,2.281 z M 434.176,507.734 c 9.933,16.555 16.523,27.746 24.879,37.036 l 36.8,-33.11 c -4.41,-4.898 -8.269,-11.121 -19.234,-29.394 z m 102.691,27.149 c -15.832,-3.082 -30.226,-11.231 -41.012,-23.223 l -36.8,33.11 c 17.98,19.984 41.972,33.566 68.355,38.699 z M 220.031,255.75 c 21.309,0 28.629,0.109 35.102,1.367 l 9.457,-48.586 c -12.266,-2.39 -25.25,-2.281 -44.559,-2.281 z m 137.793,28.516 C 347.891,267.711 341.301,256.52 332.945,247.23 l -36.8,33.11 c 4.41,4.898 8.269,11.121 19.234,29.394 z M 255.133,257.117 c 15.828,3.082 30.226,11.235 41.012,23.223 l 36.8,-33.11 c -17.98,-19.98 -41.972,-33.566 -68.355,-38.699 z"
         style="fill:#000000;fill-opacity:1;fill-rule:nonzero;stroke:none"
         id="path14" />
    </g>
  </g>
</svg>
