<svg xmlns="http://www.w3.org/2000/svg" xmlns:xlink="http://www.w3.org/1999/xlink" xmlns:inkscape="http://www.inkscape.org/namespaces/inkscape" version="1.1" width="32" height="32" viewBox="0 0 32 32">
<path transform="matrix(1,0,0,-1,4.5,27.977662)" d="M22.400002-.000002 13.755669 8.644332C13.089002 8.081443 12.315224 7.640665 11.434335 7.321999 10.553446 7.003553 9.616113 6.844332 8.622335 6.844332 6.212557 6.844332 4.173 7.679554 2.503667 9.349998 .834556 11.020221 0 13.044222 0 15.422 0 17.799778 .835222 19.823889 2.505667 21.494334 4.175889 23.164778 6.203668 24 8.589002 24 10.974113 24 12.998114 23.164778 14.661003 21.494334 16.324114 19.823889 17.155669 17.798666 17.155669 15.418665 17.155669 14.457998 17.000113 13.536887 16.689002 12.655332 16.37789 11.773998 15.926003 10.962888 15.333336 10.221999L24.000002 1.599998 22.400002-.000002ZM8.6 9.066666C10.359334 9.066666 11.85467 9.686999 13.086002 10.927666 14.317558 12.168333 14.933335 13.666444 14.933335 15.422 14.933335 17.177556 14.317558 18.675778 13.086002 19.916666 11.85467 21.157334 10.359334 21.777668 8.6 21.777668 6.828445 21.777668 5.322556 21.157334 4.082334 19.916666 2.842334 18.675778 2.222333 17.177556 2.222333 15.422 2.222333 13.666444 2.842334 12.168333 4.082334 10.927666 5.322556 9.686999 6.828445 9.066666 8.6 9.066666Z"/>
</svg>
