<svg width="16" height="16" viewBox="0 0 16 16" fill="none" xmlns="http://www.w3.org/2000/svg">
<path d="M6.89418 1.6518C7.37457 0.719366 8.70773 0.719368 9.18812 1.6518L9.54074 2.33623C9.8294 2.89651 10.4806 3.16625 11.0809 2.97418L11.8142 2.73955C12.8132 2.41991 13.7559 3.3626 13.4363 4.36161L13.2016 5.09492C13.0096 5.69521 13.2793 6.34641 13.8396 6.63507L14.524 6.98769C15.4564 7.46808 15.4564 8.80124 14.524 9.28162L13.8396 9.63424C13.2793 9.9229 13.0096 10.5741 13.2016 11.1744L13.4363 11.9077C13.7559 12.9067 12.8132 13.8494 11.8142 13.5298L11.0809 13.2951C10.4806 13.1031 9.8294 13.3728 9.54074 13.9331L9.18812 14.6175C8.70773 15.5499 7.37457 15.5499 6.89418 14.6175L6.54156 13.9331C6.25291 13.3728 5.6017 13.1031 5.00141 13.2951L4.26811 13.5298C3.26909 13.8494 2.32641 12.9067 2.64605 11.9077L2.88068 11.1744C3.07274 10.5741 2.80301 9.9229 2.24272 9.63424L1.55829 9.28162C0.625861 8.80124 0.625862 7.46808 1.55829 6.98769L2.24272 6.63507C2.80301 6.34641 3.07274 5.69521 2.88067 5.09492L2.64605 4.36161C2.32641 3.3626 3.26909 2.41991 4.26811 2.73955L5.00141 2.97418C5.6017 3.16625 6.25291 2.89651 6.54157 2.33623L6.89418 1.6518Z" fill="#5F9AE0"/>
</svg>
