<svg xmlns="http://www.w3.org/2000/svg" xmlns:xlink="http://www.w3.org/1999/xlink" xmlns:inkscape="http://www.inkscape.org/namespaces/inkscape" version="1.1" width="24" height="24" viewBox="0 0 24 24">
<path transform="matrix(1,0,0,-1,3,21)" d="M6.107701 9.242342 8.392301 11.532717 6.338476 13.592319 5.180775 12.434643 4.473075 13.142343 5.625 14.300018 3.673075 16.251944 1.3827 13.961567 6.107701 9.242342ZM13.942302 1.401943 16.2327 3.692317 14.280777 5.644242 13.123075 4.492317 12.415376 5.200017 13.567302 6.357718 11.526927 8.392317 9.242326 6.107718 13.942302 1.401943ZM4.15385 1.000017H1V4.153867L5.394226 8.548093 0 13.961567 3.673075 17.634644 9.111551 12.215418 13.578851 16.688494C13.689101 16.798745 13.805127 16.878228 13.926927 16.926945 14.048727 16.97566 14.178852 17.00002 14.317302 17.00002 14.455769 17.00002 14.585901 16.97566 14.707701 16.926945 14.829501 16.878228 14.945527 16.798745 15.055777 16.688494L16.688477 14.992343C16.798727 14.882076 16.87501 14.766043 16.917326 14.644242 16.959628 14.522459 16.980778 14.392334 16.980778 14.253868 16.980778 14.115401 16.959628 13.989435 16.917326 13.875969 16.87501 13.762519 16.798727 13.65066 16.688477 13.540393L12.259626 9.086568 17.634627 3.673091 13.961551 .000017 8.548076 5.394242 4.15385 1.000017ZM2 2.000017H3.726925L13.546151 11.813469 11.813452 13.546168 2 3.726943V2.000017ZM12.692302 12.686543 11.813452 13.546168 13.546151 11.813469 12.692302 12.686543Z"/>
</svg>
