<svg xmlns="http://www.w3.org/2000/svg" xmlns:xlink="http://www.w3.org/1999/xlink" xmlns:inkscape="http://www.inkscape.org/namespaces/inkscape" version="1.1" width="24" height="24" viewBox="0 0 24 24">
<path transform="matrix(1,0,0,-1,4,20)" d="M1.615375 0C1.155125 0 .770833 .154166 .4625 .4625 .154167 .770833 0 1.155125 0 1.615375V14.384625C0 14.844875 .154167 15.229167 .4625 15.5375 .770833 15.845834 1.155125 16 1.615375 16H8.019225V15H1.615375C1.461542 15 1.320517 14.9359 1.1923 14.807699 1.0641 14.679483 1 14.538459 1 14.384625V1.615375C1 1.461541 1.0641 1.320517 1.1923 1.1923 1.320517 1.0641 1.461542 1 1.615375 1H8.019225V0H1.615375ZM12.461525 4.461525 11.7596 5.180775 14.07885 7.5H5.1923V8.5H14.07885L11.7596 10.819224 12.461525 11.538475 16 8 12.461525 4.461525Z"/>
</svg>
