<svg xmlns="http://www.w3.org/2000/svg" xmlns:xlink="http://www.w3.org/1999/xlink" xmlns:inkscape="http://www.inkscape.org/namespaces/inkscape" version="1.1" width="24" height="24" viewBox="0 0 24 24">
<path transform="matrix(1,0,0,-1,5,21.384644)" d="M0 2.615417V3.615417H1.615375V11.538492C1.615375 12.844893 2.028841 13.993927 2.855775 14.985594 3.682691 15.977278 4.730767 16.59491 6 16.838494V17.384644C6 17.662426 6.097001 17.898543 6.291 18.092993 6.485001 18.287426 6.720583 18.384644 6.99775 18.384644 7.2749 18.384644 7.511225 18.287426 7.706726 18.092993 7.902242 17.898543 8 17.662426 8 17.384644V16.838494C9.269234 16.59491 10.317308 15.977278 11.144225 14.985594 11.971158 13.993927 12.384625 12.844893 12.384625 11.538492V3.615417H14V2.615417H0ZM6.996601 .000017C6.551434 .000017 6.171475 .158192 5.856725 .474543 5.541992 .790892 5.384625 1.171185 5.384625 1.615417H8.615375C8.615375 1.167984 8.456875 .786892 8.139874 .472141 7.822858 .157393 7.441767 .000017 6.996601 .000017ZM2.615375 3.615417H11.384625V11.538492C11.384625 12.753876 10.9577 13.788492 10.10385 14.642343 9.25 15.496176 8.215384 15.923094 7 15.923094 5.784617 15.923094 4.75 15.496176 3.89615 14.642343 3.0423 13.788492 2.615375 12.753876 2.615375 11.538492V3.615417Z"/>
</svg>
