<svg xmlns="http://www.w3.org/2000/svg" xmlns:xlink="http://www.w3.org/1999/xlink" xmlns:inkscape="http://www.inkscape.org/namespaces/inkscape" version="1.1" width="24" height="24" viewBox="0 0 24 24">
<path transform="matrix(1,0,0,-1,3.299988,19.699994)" d="M.7 3.249999V1.499999C.7 1.299999 .783333 1.116666 .95 .949999 1.116667 .783333 1.3 .699999 1.5 .699999H15.900001C16.1 .699999 16.283333 .783333 16.45 .949999 16.616667 1.116666 16.7 1.299999 16.7 1.499999V3.249999H.7ZM1.5 12.349999H5.175C5.091667 12.499999 5.016667 12.658333 4.95 12.824999 4.883333 12.991666 4.85 13.166666 4.85 13.349999 4.85 13.833332 5.0125 14.237499 5.3375 14.562499 5.6625 14.887499 6.066667 15.049999 6.55 15.049999 6.84 15.049999 7.10825 14.973415 7.35475 14.82025 7.60125 14.667249 7.816333 14.477166 8 14.249999L8.650001 13.349999 9.3 14.249999C9.483334 14.483333 9.699749 14.674999 9.949249 14.824999 10.19875 14.974999 10.467418 15.049999 10.755251 15.049999 11.235084 15.049999 11.6375 14.887499 11.962501 14.562499 12.2875 14.237499 12.45 13.833332 12.45 13.349999 12.45 13.166666 12.420834 12.991666 12.3625 12.824999 12.304167 12.658333 12.225 12.499999 12.125 12.349999H15.900001C16.333334 12.349999 16.691668 12.208332 16.975 11.924999 17.258334 11.641666 17.4 11.283333 17.4 10.849998V1.499999C17.4 1.066666 17.258334 .708332 16.975 .424999 16.691668 .141665 16.333334-.000001 15.900001-.000001H1.5C1.066667-.000001 .708333 .141665 .425 .424999 .141667 .708332 0 1.066666 0 1.499999V10.849998C0 11.283333 .141667 11.641666 .425 11.924999 .708333 12.208332 1.066667 12.349999 1.5 12.349999ZM.7 5.149999H16.7V10.849998C16.7 11.049999 16.616667 11.233333 16.45 11.4 16.283333 11.566666 16.1 11.65 15.900001 11.65H9.85L11.8 8.949999 11.25 8.549999 8.650001 12.099999 6.05 8.549999 5.5 8.949999 7.45 11.65H1.5C1.3 11.65 1.116667 11.566666 .95 11.4 .783333 11.233333 .7 11.049999 .7 10.849998V5.149999ZM6.55 12.349999C6.833333 12.349999 7.070833 12.445832 7.2625 12.637499 7.454167 12.829166 7.55 13.066666 7.55 13.349999 7.55 13.633332 7.454167 13.870832 7.2625 14.062499 7.070833 14.254166 6.833333 14.349999 6.55 14.349999 6.266667 14.349999 6.029167 14.254166 5.8375 14.062499 5.645833 13.870832 5.55 13.633332 5.55 13.349999 5.55 13.066666 5.645833 12.829166 5.8375 12.637499 6.029167 12.445832 6.266667 12.349999 6.55 12.349999ZM10.75 12.349999C11.033334 12.349999 11.270834 12.445832 11.462501 12.637499 11.654167 12.829166 11.75 13.066666 11.75 13.349999 11.75 13.633332 11.654167 13.870832 11.462501 14.062499 11.270834 14.254166 11.033334 14.349999 10.75 14.349999 10.466667 14.349999 10.229167 14.254166 10.0375 14.062499 9.845834 13.870832 9.75 13.633332 9.75 13.349999 9.75 13.066666 9.845834 12.829166 10.0375 12.637499 10.229167 12.445832 10.466667 12.349999 10.75 12.349999Z"/>
</svg>
