<svg xmlns="http://www.w3.org/2000/svg" xmlns:xlink="http://www.w3.org/1999/xlink" xmlns:inkscape="http://www.inkscape.org/namespaces/inkscape" version="1.1" width="24" height="24" viewBox="0 0 24 24">
<path transform="matrix(1,0,0,-1,4,20)" d="M1 3V1 15 3ZM1.615375 0C1.167942 0 .78685 .157368 .4721 .4721 .157367 .786851 0 1.167941 0 1.615375V14.384625C0 14.832059 .157367 15.213151 .4721 15.527901 .78685 15.842634 1.167942 16 1.615375 16H14.384625C14.832059 16 15.213151 15.842634 15.527901 15.527901 15.842634 15.213151 16 14.832059 16 14.384625V11.442325H15V14.384625C15 14.564109 14.942309 14.711542 14.826926 14.826925 14.711542 14.942309 14.564109 15 14.384625 15H1.615375C1.435892 15 1.288458 14.942309 1.173075 14.826925 1.057692 14.711542 1 14.564109 1 14.384625V1.615375C1 1.435891 1.057692 1.288458 1.173075 1.173074 1.288458 1.057691 1.435892 1 1.615375 1H14.384625C14.564109 1 14.711542 1.057691 14.826926 1.173074 14.942309 1.288458 15 1.435891 15 1.615375V4.557675H16V1.615375C16 1.167941 15.842634 .786851 15.527901 .4721 15.213151 .157368 14.832059 0 14.384625 0H1.615375ZM9.615375 4C9.167941 4 8.78685 4.157367 8.4721 4.4721 8.157367 4.78685 8 5.167941 8 5.615375V10.384624C8 10.832058 8.157367 11.21315 8.4721 11.527901 8.78685 11.842634 9.167941 12 9.615375 12H15.384625C15.832059 12 16.21315 11.842634 16.5279 11.527901 16.842635 11.21315 17 10.832058 17 10.384624V5.615375C17 5.167941 16.842635 4.78685 16.5279 4.4721 16.21315 4.157367 15.832059 4 15.384625 4H9.615375ZM15.384625 5C15.564109 5 15.711542 5.057692 15.826926 5.173075 15.942309 5.288458 16 5.435891 16 5.615375V10.384624C16 10.564108 15.942309 10.711542 15.826926 10.826925 15.711542 10.942308 15.564109 11 15.384625 11H9.615375C9.435891 11 9.288458 10.942308 9.173075 10.826925 9.057692 10.711542 9 10.564108 9 10.384624V5.615375C9 5.435891 9.057692 5.288458 9.173075 5.173075 9.288458 5.057692 9.435891 5 9.615375 5H15.384625ZM12 6.5C12.416667 6.5 12.770834 6.645833 13.0625 6.9375 13.354167 7.229167 13.5 7.583333 13.5 8 13.5 8.416666 13.354167 8.770833 13.0625 9.0625 12.770834 9.354166 12.416667 9.5 12 9.5 11.583334 9.5 11.229167 9.354166 10.9375 9.0625 10.645833 8.770833 10.5 8.416666 10.5 8 10.5 7.583333 10.645833 7.229167 10.9375 6.9375 11.229167 6.645833 11.583334 6.5 12 6.5Z"/>
</svg>
