<svg xmlns="http://www.w3.org/2000/svg" xmlns:xlink="http://www.w3.org/1999/xlink" xmlns:inkscape="http://www.inkscape.org/namespaces/inkscape" version="1.1" width="20.934082" height="24" viewBox="0 0 20.934082 24">
<defs>
<mask id="mask_0">
<g>
<clipPath id="clip_1">
<path transform="matrix(1,0,0,-1,0,24)" d="M0 0H20.934082V24H0Z"/>
</clipPath>
<g clip-path="url(#clip_1)">
<path transform="matrix(1,0,0,-1,0,24)" d="M0 24H20.93413V0H0V24Z"/>
</g>
</g>
"/>
</mask>
<clipPath id="clip_2">
<path transform="matrix(1,0,0,-1,0,24)" d="M0 0H20.934082V24H0Z"/>
</clipPath>
</defs>
<g>
<g mask="url(#mask_0)">
<g>
<g clip-path="url(#clip_2)">
<path transform="matrix(1,0,0,-1,5.245117,15.752686)" d="M0 7.090729H1.666889C3.561175 7.090729 4.820878 5.852319 4.820878 3.61164 4.820878 1.370961 3.665411 .000019 1.771125 .000019H0V.207969C.388408 .207969 .520884 .264643 .520884 .879346V6.211549C.520884 6.83555 .388408 6.882778 0 6.882778V7.090729ZM3.921196 3.365759C3.921196 5.284992 3.296076 6.674678 1.562801 6.674678H1.392327V.41592H1.780587C3.163451 .41592 3.921196 1.323586 3.921196 3.365759Z"/>
<path transform="matrix(1,0,0,-1,9.703125,15.828369)" d="M5.502624 7.166412H7.018112V6.958462C6.762327 6.958462 6.62985 6.816777 6.459377 6.183182L4.86819-.000012H4.59348L3.542249 4.169346 2.405707-.000012H2.131145L.539957 6.173737C.369484 6.807184 .255785 6.958462 0 6.958462V7.166412H1.771124V6.958462C1.363791 6.958462 1.221853 6.892343 1.401789 6.173737L2.481556 1.928667 3.324462 5.010744 3.030827 6.173589C2.869816 6.807036 2.756265 6.958314 2.491018 6.958314V7.166265H4.243217V6.958314C3.845494 6.958314 3.703408 6.892195 3.883345 6.173589L4.915798 1.94741 5.938641 5.927707C6.137502 6.740769 6.004879 6.94872 5.50292 6.958166V7.166118L5.502624 7.166412Z"/>
<path transform="matrix(1,0,0,-1,-.000488,22.539948)" d="M12.410297 20.520276 13.631854 21.927674 13.623132 22.340329C8.665787 23.4251 3.195985 19.99811 .96297 14.167209-.961034 9.143612 .097442 3.849192 3.252761 .885332L3.520226 1.115273C3.520226 1.115273 1.308501 3.522285 1.312345 7.906826 1.272721 9.725552 1.600658 11.678729 2.340068 13.609621 4.285954 18.690335 8.652628 22.055336 12.353522 21.898894 12.345687 21.870705 12.016862 20.699448 12.016862 20.699448L12.410297 20.520276Z"/>
<path transform="matrix(1,0,0,-1,7.301758,24.885193)" d="M1.221557 2.904797 0 1.4974 .008723 1.084743C4.965919-.000027 10.43572 3.427113 12.668736 9.258013 14.592739 14.281756 13.534264 19.576027 10.378944 22.539887L10.11148 22.309945C10.11148 22.309945 12.323204 19.902935 12.31936 15.518394 12.358984 13.699669 12.031048 11.74649 11.291637 9.815598 9.3459 4.735035 4.979226 1.370031 1.278332 1.526327 1.286168 1.554518 1.614992 2.725775 1.614992 2.725775L1.221557 2.904945V2.904797Z"/>
</g>
</g>
</g>
</g>
</svg>
