<svg xmlns="http://www.w3.org/2000/svg" xmlns:xlink="http://www.w3.org/1999/xlink" xmlns:inkscape="http://www.inkscape.org/namespaces/inkscape" version="1.1" width="24" height="24" viewBox="0 0 24 24">
<path transform="matrix(1,0,0,-1,3.257812,21)" d="M6.876925 0 6.5154 2.892301C6.196167 2.988451 5.850975 3.139733 5.479825 3.34615 5.108675 3.552567 4.792966 3.773717 4.5327 4.009601L1.8654 2.875 0 6.125 2.305775 7.863475C2.276291 8.044242 2.251933 8.230458 2.2327 8.422125 2.213467 8.613791 2.20385 8.800008 2.20385 8.980775 2.20385 9.148725 2.213467 9.325325 2.2327 9.510575 2.251933 9.695826 2.276291 9.904474 2.305775 10.136524L0 11.875 1.8654 15.08655 4.513475 13.971149C4.812191 14.219867 5.135266 14.444224 5.4827 14.644224 5.830133 14.844225 6.167958 14.998716 6.496175 15.107699L6.876925 18H10.607726L10.969251 15.088475C11.352584 14.953858 11.691367 14.799367 11.9856 14.625 12.279834 14.45065 12.582718 14.2327 12.894251 13.971149L15.61925 15.08655 17.48465 11.875 15.101951 10.07885C15.157084 9.872433 15.187851 9.683008 15.194251 9.510575 15.200667 9.338142 15.203875 9.16795 15.203875 9 15.203875 8.844867 15.197466 8.681083 15.184649 8.50865 15.171816 8.336217 15.142325 8.127566 15.096175 7.8827L17.4404 6.125 15.575025 2.875 12.894251 4.02885C12.582718 3.7673 12.269258 3.542941 11.953875 3.355775 11.638492 3.168591 11.310284 3.020508 10.969251 2.911525L10.607726 0H6.876925ZM7.742325 1H9.6981L10.067325 3.7077C10.571175 3.841033 11.024699 4.024043 11.427899 4.256726 11.8311 4.489427 12.241675 4.808332 12.659625 5.213449L15.153874 4.15 16.1481 5.849999 13.959625 7.494226C14.042958 7.778842 14.098091 8.040699 14.125025 8.279799 14.151941 8.5189 14.1654 8.758966 14.1654 9 14.1654 9.25385 14.151941 9.493917 14.125025 9.720201 14.098091 9.946484 14.042958 10.195517 13.959625 10.4673L16.18655 12.15 15.192325 13.85 12.640399 12.780775C12.337832 13.112825 11.940076 13.424042 11.447125 13.714426 10.954175 14.004808 10.487834 14.197433 10.0481 14.2923L9.742325 17H7.7481L7.43655 14.311549C6.9327 14.20385 6.469558 14.03045 6.047124 13.791349 5.624691 13.55225 5.2045 13.223725 4.78655 12.805775L2.292325 13.85 1.2981 12.15 3.467325 10.530775C3.383992 10.306409 3.325658 10.062817 3.292325 9.8 3.258991 9.537184 3.242325 9.264109 3.242325 8.980775 3.242325 8.726925 3.258991 8.474999 3.292325 8.224999 3.325658 7.974999 3.377583 7.731409 3.4481 7.494226L1.2981 5.849999 2.292325 4.15 4.767325 5.2C5.159625 4.80385 5.567 4.486225 5.98945 4.247125 6.411883 4.008008 6.887842 3.821782 7.417325 3.688449L7.742325 1ZM8.7154 6.5C9.412833 6.5 10.003859 6.742309 10.488475 7.226925 10.973091 7.711541 11.2154 8.302567 11.2154 9 11.2154 9.697433 10.973091 10.288458 10.488475 10.773074 10.003859 11.25769 9.412833 11.5 8.7154 11.5 8.014116 11.5 7.422125 11.25769 6.939425 10.773074 6.456742 10.288458 6.2154 9.697433 6.2154 9 6.2154 8.302567 6.456742 7.711541 6.939425 7.226925 7.422125 6.742309 8.014116 6.5 8.7154 6.5Z"/>
</svg>
