<svg xmlns="http://www.w3.org/2000/svg" xmlns:xlink="http://www.w3.org/1999/xlink" xmlns:inkscape="http://www.inkscape.org/namespaces/inkscape" version="1.1" width="24" height="24" viewBox="0 0 24 24">
<path transform="matrix(1,0,0,-1,5,21)" d="M1.615375 0C1.155125 0 .770833 .154167 .4625 .4625 .154167 .770834 0 1.155125 0 1.615374V12.384624C0 12.844875 .154167 13.229166 .4625 13.5375 .770833 13.845833 1.155125 14 1.615375 14H3.5V14.5C3.5 15.4718 3.840384 16.298083 4.52115 16.97885 5.201917 17.659617 6.0282 18 7 18 7.9718 18 8.798083 17.659617 9.47885 16.97885 10.159616 16.298083 10.5 15.4718 10.5 14.5V14H12.384625C12.844875 14 13.229167 13.845833 13.5375 13.5375 13.845834 13.229166 14 12.844875 14 12.384624V1.615374C14 1.155125 13.845834 .770834 13.5375 .4625 13.229167 .154167 12.844875 0 12.384625 0H1.615375ZM1.615375 1H12.384625C12.538459 1 12.679483 1.0641 12.8077 1.192301 12.9359 1.320517 13 1.461542 13 1.615374V12.384624C13 12.538458 12.9359 12.679483 12.8077 12.807699 12.679483 12.9359 12.538459 13 12.384625 13H10.5V10.5C10.5 10.3577 10.452241 10.238792 10.356725 10.143275 10.261225 10.047758 10.142317 10 10 10 9.857683 10 9.738775 10.047758 9.643275 10.143275 9.547759 10.238792 9.5 10.3577 9.5 10.5V13H4.5V10.5C4.5 10.3577 4.452242 10.238792 4.356725 10.143275 4.261225 10.047758 4.142317 10 4 10 3.857683 10 3.738775 10.047758 3.643275 10.143275 3.547758 10.238792 3.5 10.3577 3.5 10.5V13H1.615375C1.461541 13 1.320517 12.9359 1.1923 12.807699 1.0641 12.679483 1 12.538458 1 12.384624V1.615374C1 1.461542 1.0641 1.320517 1.1923 1.192301 1.320517 1.0641 1.461541 1 1.615375 1ZM4.5 14H9.5V14.5C9.5 15.20385 9.259292 15.796474 8.777875 16.277874 8.296474 16.75929 7.70385 17 7 17 6.29615 17 5.703526 16.75929 5.222126 16.277874 4.740709 15.796474 4.5 15.20385 4.5 14.5V14Z"/>
</svg>
