<svg xmlns="http://www.w3.org/2000/svg" xmlns:xlink="http://www.w3.org/1999/xlink" xmlns:inkscape="http://www.inkscape.org/namespaces/inkscape" version="1.1" width="24" height="24" viewBox="0 0 24 24">
<path transform="matrix(1,0,0,-1,4,20)" d="M1.615375 .000002C1.155125 .000002 .770833 .154169 .4625 .462502 .154167 .770834 0 1.155127 0 1.615376V14.384628C0 14.844878 .154167 15.22917 .4625 15.537502 .770833 15.845837 1.155125 16.000004 1.615375 16.000004H10.001925L9.001925 15.000003H1.615375C1.461542 15.000003 1.320517 14.935903 1.1923 14.807702 1.0641 14.679485 1 14.538462 1 14.384628V1.615376C1 1.461542 1.0641 1.320518 1.1923 1.192303 1.320517 1.064102 1.461542 1.000002 1.615375 1.000002H14.384625C14.538459 1.000002 14.679483 1.064102 14.8077 1.192303 14.9359 1.320518 15 1.461542 15 1.615376V9.103852L16 10.103852V1.615376C16 1.155127 15.845834 .770834 15.5375 .462502 15.229167 .154169 14.844875 .000002 14.384625 .000002H1.615375ZM6 6.000002V8.615402L14.944224 17.559628C15.054475 17.669878 15.170501 17.74616 15.2923 17.788479 15.414101 17.830779 15.542309 17.851929 15.676926 17.851929 15.802559 17.851929 15.925317 17.830779 16.0452 17.788479 16.165066 17.74616 16.273718 17.676287 16.371151 17.578854L17.4827 16.500004C17.589118 16.389754 17.669884 16.268279 17.725 16.135579 17.780135 16.002894 17.8077 15.869245 17.8077 15.734629 17.8077 15.600012 17.787508 15.472761 17.747126 15.352878 17.706742 15.233011 17.631417 15.117945 17.52115 15.007678L8.519225 6.000002H6ZM7 7.000002H8.092299L14.7577 13.665378 14.211525 14.211528 13.601926 14.796153 7 8.194227V7.000002Z"/>
</svg>
