<svg xmlns="http://www.w3.org/2000/svg" xmlns:xlink="http://www.w3.org/1999/xlink" xmlns:inkscape="http://www.inkscape.org/namespaces/inkscape" version="1.1" width="24" height="24" viewBox="0 0 24 24">
<path transform="matrix(1,0,0,-1,3,19.65393)" d="M9 .000055 8.2423 .68468C6.61025 2.175697 5.26025 3.451972 4.1923 4.513505 3.12435 5.575055 2.2814 6.51128 1.66345 7.32218 1.0455 8.13308 .613775 8.86673 .368275 9.52313 .122758 10.179546 0 10.839806 0 11.503906 0 12.775706 .43205 13.843656 1.29615 14.707756 2.16025 15.571856 3.2282 16.003907 4.5 16.003907 5.379483 16.003907 6.204484 15.778906 6.975 15.328906 7.745517 14.878906 8.420517 14.224422 9 13.365456 9.579483 14.224422 10.254483 14.878906 11.025001 15.328906 11.795517 15.778906 12.620517 16.003907 13.5 16.003907 14.7718 16.003907 15.83975 15.571856 16.70385 14.707756 17.56795 13.843656 18 12.775706 18 11.503906 18 10.839806 17.877242 10.179546 17.631726 9.52313 17.386225 8.86673 16.9545 8.13308 16.33655 7.32218 15.718599 6.51128 14.878859 5.575055 13.817325 4.513505 12.755774 3.451972 11.402567 2.175697 9.757701 .68468L9 .000055ZM9 1.353905C10.6 2.800056 11.916667 4.038838 12.95 5.070255 13.983334 6.101655 14.8 6.996522 15.400001 7.754855 16 8.513189 16.416666 9.184989 16.65 9.770256 16.883334 10.355505 17 10.93339 17 11.503906 17 12.503906 16.666666 13.337239 16 14.003906 15.333334 14.670572 14.5 15.003906 13.5 15.003906 12.70385 15.003906 11.969234 14.776665 11.29615 14.322182 10.623084 13.867699 10.020525 13.183397 9.488475 12.26928H8.511525C7.966659 13.196214 7.360892 13.883715 6.694225 14.331781 6.027559 14.779864 5.29615 15.003906 4.5 15.003906 3.512817 15.003906 2.682692 14.670572 2.009625 14.003906 1.336542 13.337239 1 12.503906 1 11.503906 1 10.93339 1.116667 10.355505 1.35 9.770256 1.583333 9.184989 2 8.513189 2.6 7.754855 3.2 6.996522 4.016667 6.104856 5.05 5.079855 6.083333 4.054855 7.4 2.812872 9 1.353905Z"/>
</svg>
