<svg xmlns="http://www.w3.org/2000/svg" xmlns:xlink="http://www.w3.org/1999/xlink" xmlns:inkscape="http://www.inkscape.org/namespaces/inkscape" version="1.1" width="24" height="24" viewBox="0 0 24 24">
<path transform="matrix(1,0,0,-1,3,21)" d="M8.484626 2.384625H9.465375V3.557699C10.183325 3.617949 10.87115 3.87564 11.52885 4.330773 12.186533 4.785891 12.515375 5.4923 12.515375 6.45 12.515375 7.15 12.302559 7.746791 11.876925 8.240375 11.451292 8.733974 10.638475 9.197441 9.438476 9.630774 8.335909 10.015391 7.631417 10.345516 7.325 10.62115 7.018583 10.8968 6.865375 11.28975 6.865375 11.799999 6.865375 12.310249 7.064417 12.73525 7.4625 13.075 7.860583 13.41475 8.38975 13.584625 9.05 13.584625 9.5577 13.584625 9.980775 13.468274 10.319224 13.235575 10.657691 13.002874 10.932051 12.707684 11.142301 12.35L12.01155 12.692301C11.776933 13.173067 11.433017 13.575633 10.9798 13.9 10.526601 14.224367 10.038458 14.405134 9.515375 14.442301V15.615375H8.534625V14.442301C7.662825 14.297434 7.003208 13.972433 6.555775 13.4673 6.108341 12.962183 5.884625 12.406416 5.884625 11.799999 5.884625 11.080767 6.110583 10.505124 6.5625 10.073074 7.014417 9.641025 7.776917 9.230766 8.85 8.842299 9.925633 8.44615 10.648393 8.088458 11.018275 7.769225 11.388143 7.449992 11.573074 7.01025 11.573074 6.45 11.573074 5.74615 11.316341 5.239417 10.802875 4.9298 10.289425 4.620184 9.738467 4.465375 9.150001 4.465375 8.574367 4.465375 8.054816 4.633007 7.59135 4.968274 7.127883 5.303524 6.757691 5.780766 6.480775 6.4L5.6 6.019225C5.884617 5.334608 6.26635 4.800957 6.745201 4.418274 7.224034 4.035574 7.803842 3.765383 8.484626 3.607699V2.384625ZM9 0C7.757683 0 6.589092 .236856 5.494226 .710573 4.399359 1.18429 3.446792 1.826275 2.636525 2.636525 1.826275 3.446792 1.184292 4.399359 .710575 5.494226 .236858 6.589092 0 7.757683 0 9 0 10.242317 .236858 11.410909 .710575 12.505775 1.184292 13.600642 1.826275 14.553208 2.636525 15.363475 3.446792 16.173726 4.399359 16.815709 5.494226 17.289425 6.589092 17.763142 7.757683 18 9 18 10.242317 18 11.410909 17.763142 12.505775 17.289425 13.600642 16.815709 14.553208 16.173726 15.363475 15.363475 16.173726 14.553208 16.81571 13.600642 17.289427 12.505775 17.763144 11.410909 18 10.242317 18 9 18 7.757683 17.763144 6.589092 17.289427 5.494226 16.81571 4.399359 16.173726 3.446792 15.363475 2.636525 14.553208 1.826275 13.600642 1.18429 12.505775 .710573 11.410909 .236856 10.242317 0 9 0ZM9 1C11.233334 1 13.125 1.775 14.675 3.325 16.225 4.875 17 6.766666 17 9 17 11.233334 16.225 13.125 14.675 14.675 13.125 16.225 11.233334 17 9 17 6.766667 17 4.875 16.225 3.325 14.675 1.775 13.125 1 11.233334 1 9 1 6.766666 1.775 4.875 3.325 3.325 4.875 1.775 6.766667 1 9 1Z"/>
</svg>
