<svg xmlns="http://www.w3.org/2000/svg" xmlns:xlink="http://www.w3.org/1999/xlink" xmlns:inkscape="http://www.inkscape.org/namespaces/inkscape" version="1.1" width="24" height="24" viewBox="0 0 24 24">
<path transform="matrix(1,0,0,-1,3,21)" d="M3.19615 3.515374C4.04615 4.126925 4.948075 4.610583 5.901925 4.96635 6.855775 5.322116 7.888467 5.5 9 5.5 10.111533 5.5 11.144224 5.322116 12.098075 4.96635 13.051925 4.610583 13.95385 4.126925 14.80385 3.515374 15.4641 4.198708 15.995193 5.005767 16.397126 5.93655 16.799042 6.867316 17 7.888467 17 9 17 11.216667 16.220833 13.104166 14.6625 14.6625 13.104167 16.220833 11.216667 17 9 17 6.783333 17 4.895833 16.220833 3.3375 14.6625 1.779167 13.104166 1 11.216667 1 9 1 7.888467 1.200958 6.867316 1.602875 5.93655 2.004808 5.005767 2.5359 4.198708 3.19615 3.515374ZM9.000575 8.5C8.157875 8.5 7.447108 8.789225 6.868275 9.367675 6.289425 9.946141 6 10.656725 6 11.499424 6 12.342125 6.289225 13.052891 6.867675 13.631724 7.446142 14.210574 8.156725 14.5 8.999425 14.5 9.842125 14.5 10.552892 14.210766 11.131724 13.632299 11.710575 13.05385 12 12.343275 12 11.500575 12 10.657875 11.710767 9.947108 11.1323 9.368275 10.55385 8.789425 9.843275 8.5 9.000575 8.5ZM9 0C7.744867 0 6.569867 .233648 5.475 .700949 4.380134 1.168266 3.427567 1.807051 2.6173 2.6173 1.80705 3.427567 1.168267 4.380133 .70095 5.474999 .23365 6.569866 0 7.744866 0 9 0 10.255133 .23365 11.430134 .70095 12.525 1.168267 13.619866 1.80705 14.572433 2.6173 15.3827 3.427567 16.19295 4.380134 16.831732 5.475 17.29905 6.569867 17.76635 7.744867 18 9 18 10.255134 18 11.430134 17.76635 12.525001 17.29905 13.619867 16.831732 14.572433 16.19295 15.3827 15.3827 16.19295 14.572433 16.831734 13.619866 17.29905 12.525 17.76635 11.430134 18 10.255133 18 9 18 7.744866 17.76635 6.569866 17.29905 5.474999 16.831734 4.380133 16.19295 3.427567 15.3827 2.6173 14.572433 1.807051 13.619867 1.168266 12.525001 .700949 11.430134 .233648 10.255134 0 9 0ZM9 1C9.921801 1 10.828851 1.161217 11.72115 1.48365 12.613467 1.806084 13.384625 2.247433 14.034625 2.807699 13.384625 3.329483 12.6327 3.741982 11.77885 4.045199 10.925 4.348399 9.998716 4.5 9 4.5 8.001284 4.5 7.0718 4.351601 6.21155 4.0548 5.351284 3.758017 4.602558 3.342316 3.965375 2.807699 4.615375 2.247433 5.386533 1.806084 6.27885 1.48365 7.17115 1.161217 8.0782 1 9 1ZM9 9.5C9.561534 9.5 10.035251 9.692949 10.42115 10.07885 10.807051 10.46475 11 10.938467 11 11.5 11 12.061533 10.807051 12.53525 10.42115 12.92115 10.035251 13.307051 9.561534 13.5 9 13.5 8.438467 13.5 7.96475 13.307051 7.57885 12.92115 7.19295 12.53525 7 12.061533 7 11.5 7 10.938467 7.19295 10.46475 7.57885 10.07885 7.96475 9.692949 8.438467 9.5 9 9.5Z"/>
</svg>
