<svg xmlns="http://www.w3.org/2000/svg" xmlns:xlink="http://www.w3.org/1999/xlink" xmlns:inkscape="http://www.inkscape.org/namespaces/inkscape" version="1.1" width="35" height="35" viewBox="0 0 35 35">
<path transform="matrix(1,0,0,-1,3.505859,31.971192)" d="M19.379063 13.910339 13.888074 19.171277C13.24665 19.788395 12.711442 20.478672 12.28245 21.24211 11.853213 22.00579 11.638595 22.837407 11.638595 23.736956 11.638595 24.809075 12.013873 25.720288 12.764428 26.4706 13.514741 27.220913 14.425834 27.59607 15.497709 27.59607 16.294203 27.59607 17.018752 27.380602 17.671355 26.949664 18.323716 26.518727 18.892952 25.995669 19.379063 25.380496 19.865174 25.995669 20.43453 26.518727 21.087136 26.949664 21.739497 27.380602 22.463925 27.59607 23.260418 27.59607 24.332537 27.59607 25.243752 27.220913 25.994065 26.4706 26.744376 25.720288 27.119532 24.809075 27.119532 23.736956 27.119532 22.837407 26.906374 22.00579 26.480053 21.24211 26.053734 20.478672 25.519984 19.788395 24.878802 19.171277L19.379063 13.910339ZM19.379063 15.918099 23.745678 20.099507C24.26363 20.598744 24.71231 21.151696 25.09172 21.758362 25.471373 22.36527 25.6612 23.024804 25.6612 23.736956 25.6612 24.402686 25.427502 24.969246 24.960106 25.436644 24.49271 25.90404 23.926148 26.137736 23.260418 26.137736 22.677084 26.137736 22.15415 25.963345 21.691615 25.61456 21.228838 25.266018 20.813212 24.855252 20.44474 24.382267L19.379063 23.047162 18.313387 24.382267C17.945158 24.855252 17.529656 25.266018 17.066878 25.61456 16.6041 25.963345 16.081042 26.137736 15.497709 26.137736 14.832223 26.137736 14.265782 25.90404 13.798387 25.436644 13.330748 24.969246 13.096929 24.402686 13.096929 23.736956 13.096929 23.024804 13.286755 22.36527 13.666408 21.758362 14.046061 21.151696 14.494741 20.598744 15.012449 20.099507L19.379063 15.918099ZM5.833334 4.767681 16.866356 1.548046 25.599585 4.245962C25.57139 4.689053 25.439045 5.008307 25.202553 5.203724 24.965817 5.399141 24.69797 5.496849 24.399012 5.496849H17.479948C16.863316 5.496849 16.304533 5.521154 15.803595 5.569765 15.302414 5.618376 14.789082 5.734194 14.263596 5.917213L11.06948 6.963566 11.563126 8.40513 14.516252 7.336536C14.985592 7.158863 15.518371 7.052284 16.114586 7.016798 16.711045 6.981312 17.528075 6.960772 18.56568 6.955181 18.56568 7.409452 18.482068 7.776831 18.314846 8.057316 18.147624 8.337803 17.90785 8.5331 17.595524 8.643204L9.204636 11.722839C9.14849 11.741311 9.096963 11.755286 9.050053 11.764766 9.003386 11.774002 8.95198 11.77862 8.895834 11.77862H5.833334V4.767681ZM0 1.346067V13.236954H8.863022C8.999133 13.236954 9.139132 13.221642 9.283021 13.191017 9.42691 13.160149 9.560591 13.124055 9.684063 13.082735L18.111407 9.995079C18.633006 9.796989 19.08217 9.440792 19.458907 8.926487 19.835644 8.412424 20.024012 7.755322 20.024012 6.955181H24.399012C25.2779 6.955181 25.951045 6.680286 26.41844 6.130495 26.885836 5.580946 27.119532 4.883619 27.119532 4.038515V3.140911L16.939274 .000027 5.833334 3.236431V1.346067H0ZM1.458333 2.804401H4.375V11.77862H1.458333V2.804401Z"/>
</svg>
