<svg xmlns="http://www.w3.org/2000/svg" xmlns:xlink="http://www.w3.org/1999/xlink" xmlns:inkscape="http://www.inkscape.org/namespaces/inkscape" version="1.1" width="24" height="24" viewBox="0 0 24 24">
<path transform="matrix(1,0,0,-1,3.538574,21.384522)" d="M0 11.606271C0 12.837105 .24325 13.982521 .72975 15.042521 1.21625 16.102522 1.879834 17.018273 2.7205 17.789772L3.314751 17.18077C2.553584 16.47927 1.951834 15.653438 1.5095 14.703271 1.067167 13.753271 .846 12.720938 .846 11.606271H0ZM16.077002 11.606271C16.077002 12.717438 15.855836 13.751938 15.413503 14.709771 14.971169 15.667439 14.369418 16.49752 13.608252 17.200022L14.202502 17.789772C15.043169 17.018273 15.706753 16.102772 16.193253 15.04327 16.679753 13.98377 16.923003 12.838104 16.923003 11.606271H16.077002ZM1.4615 2.61527V3.46152H3.077V11.566522C3.077 12.874022 3.487667 14.030853 4.309 15.037021 5.130334 16.04302 6.181168 16.661854 7.461501 16.89352V17.384522C7.461501 17.660189 7.559251 17.895771 7.754751 18.091273 7.950251 18.286772 8.185835 18.384522 8.461501 18.384522 8.737168 18.384522 8.972751 18.286772 9.16825 18.091273 9.36375 17.895771 9.461501 17.660189 9.461501 17.384522V16.88702C10.741835 16.659687 11.792667 16.04302 12.614001 15.037021 13.435334 14.030853 13.846002 12.874022 13.846002 11.566522V3.46152H15.461502V2.61527H1.4615ZM8.461501 .000019C8.014001 .000019 7.632917 .157352 7.31825 .472019 7.003417 .786686 6.846001 1.16777 6.846001 1.615269H10.077002C10.077002 1.16777 9.919584 .786686 9.604751 .472019 9.290084 .157352 8.909001 .000019 8.461501 .000019ZM3.923 3.46152H13.000001V11.566522C13.000001 12.822188 12.557502 13.892521 11.672502 14.77752 10.787335 15.66252 9.717002 16.105023 8.461501 16.105023 7.206001 16.105023 6.135667 15.66252 5.250501 14.77752 4.3655 13.892521 3.923 12.822188 3.923 11.566522V3.46152Z"/>
</svg>
