<svg xmlns="http://www.w3.org/2000/svg" xmlns:xlink="http://www.w3.org/1999/xlink" xmlns:inkscape="http://www.inkscape.org/namespaces/inkscape" version="1.1" width="24" height="24" viewBox="0 0 24 24">
<path transform="matrix(1,0,0,-1,3,20.076905)" d="M5 9.30768C5.206417 9.30768 5.386225 9.384278 5.539425 9.537478 5.692625 9.690679 5.769226 9.870487 5.769226 10.076904 5.769226 10.283321 5.692625 10.46313 5.539425 10.616329 5.386225 10.769529 5.206417 10.846128 5 10.846128 4.793583 10.846128 4.613775 10.769529 4.460575 10.616329 4.307375 10.46313 4.230775 10.283321 4.230775 10.076904 4.230775 9.870487 4.307375 9.690679 4.460575 9.537478 4.613775 9.384278 4.793583 9.30768 5 9.30768ZM9 9.30768C9.206417 9.30768 9.386225 9.384278 9.539425 9.537478 9.692625 9.690679 9.769225 9.870487 9.769225 10.076904 9.769225 10.283321 9.692625 10.46313 9.539425 10.616329 9.386225 10.769529 9.206417 10.846128 9 10.846128 8.793584 10.846128 8.613775 10.769529 8.460575 10.616329 8.307375 10.46313 8.230775 10.283321 8.230775 10.076904 8.230775 9.870487 8.307375 9.690679 8.460575 9.537478 8.613775 9.384278 8.793584 9.30768 9 9.30768ZM13 9.30768C13.206417 9.30768 13.386226 9.384278 13.539426 9.537478 13.692626 9.690679 13.769225 9.870487 13.769225 10.076904 13.769225 10.283321 13.692626 10.46313 13.539426 10.616329 13.386226 10.769529 13.206417 10.846128 13 10.846128 12.793584 10.846128 12.613774 10.769529 12.460574 10.616329 12.307375 10.46313 12.230776 10.283321 12.230776 10.076904 12.230776 9.870487 12.307375 9.690679 12.460574 9.537478 12.613774 9.384278 12.793584 9.30768 13 9.30768ZM0-.000021V15.46153C0 15.92178 .154167 16.30607 .4625 16.614405 .770833 16.922738 1.155125 17.076905 1.615375 17.076905H16.384627C16.844876 17.076905 17.229166 16.922738 17.5375 16.614405 17.845833 16.30607 18 15.92178 18 15.46153V4.692279C18 4.232029 17.845833 3.847737 17.5375 3.539404 17.229166 3.231071 16.844876 3.076904 16.384627 3.076904H3.076925L0-.000021ZM2.65 4.076904H16.384627C16.538458 4.076904 16.679484 4.141005 16.8077 4.269204 16.9359 4.397421 17 4.538445 17 4.692279V15.46153C17 15.615363 16.9359 15.756388 16.8077 15.884604 16.679484 16.012804 16.538458 16.076905 16.384627 16.076905H1.615375C1.461542 16.076905 1.320517 16.012804 1.1923 15.884604 1.0641 15.756388 1 15.615363 1 15.46153V2.432679L2.65 4.076904Z"/>
</svg>
