<svg xmlns="http://www.w3.org/2000/svg" xmlns:xlink="http://www.w3.org/1999/xlink" xmlns:inkscape="http://www.inkscape.org/namespaces/inkscape" version="1.1" width="24" height="24" viewBox="0 0 24 24">
<path transform="matrix(1,0,0,-1,3,20.994202)" d="M10.5577 .286501C10.36555 .095486 10.127442-.000023 9.843375-.000023 9.559325-.000023 9.321793 .095486 9.130775 .286501L.330775 9.086501C.224358 9.192918 .142625 9.309752 .085575 9.437001 .028525 9.564252 0 9.699985 0 9.844201V16.994202C0 17.262152 .099675 17.49581 .299025 17.695178 .498392 17.894528 .73205 17.994202 1 17.994202H8.150001C8.279484 17.994202 8.408251 17.967818 8.536301 17.91505 8.664351 17.862269 8.775326 17.791218 8.869226 17.7019L17.669226 8.896127C17.873076 8.692276 17.97821 8.445802 17.984627 8.156701 17.991026 7.867601 17.898718 7.627535 17.7077 7.436502L10.5577 .286501ZM9.835626 .994202 16.994227 8.144201 8.158601 16.994202H1V9.844201L9.835626 .994202ZM3.497751 13.494202C3.7749 13.494202 4.011226 13.591202 4.206726 13.785202 4.402242 13.979218 4.5 14.214793 4.5 14.491926 4.5 14.769094 4.403 15.005426 4.209 15.200926 4.015 15.396442 3.779417 15.494202 3.50225 15.494202 3.2251 15.494202 2.988775 15.397202 2.793275 15.203201 2.597759 15.009185 2.5 14.77361 2.5 14.496477 2.5 14.21931 2.597 13.982977 2.791 13.787477 2.985 13.591961 3.220584 13.494202 3.497751 13.494202Z"/>
</svg>
